<svg width="1602" height="594" viewBox="0 0 1602 594" fill="none" xmlns="http://www.w3.org/2000/svg">
<path d="M731.282 78.31V87.978C731.282 95.009 730.184 99.33 724.324 99.33C717.952 99.33 717.293 94.203 717.293 86.879V29.1641C717.293 21.6934 718.099 17.4453 724.251 17.4453C730.477 17.4453 731.282 21.913 731.282 28.6513V37.3672H747.908V28.5048C747.908 12.831 742.928 0.672852 724.324 0.672852C705.721 0.672852 700.74 12.245 700.74 29.2372V87.0249C700.74 103.798 705.574 115.077 724.251 115.077C742.781 115.077 747.908 104.018 747.908 88.1239V78.31H731.282ZM800.862 113.612V96.84H775.887V65.3459H796.541V48.5H775.887V19.0565H800.862V2.21085H759.407V113.612H800.862ZM829.207 113.612L828.621 46.083L845.76 113.612H864.437L864.29 2.21085H847.737L848.25 66.957L832.869 2.21085H812.654V113.612H829.207ZM918.636 19.0565V2.21085H871.468V19.0565H886.702V113.612H903.328V19.0565H918.636ZM942.879 113.612V70.5459H946.907C950.643 70.3259 954.598 73.9149 955.403 85.0479L956.355 100.575C956.722 106.361 958.919 112.147 959.505 113.612H976.64C975.18 110.17 973.35 106.142 973.05 100.062L972.03 84.6819C971.22 72.8899 969.39 69.4469 964.56 65.3459C970.05 61.0243 973.86 54.3594 973.86 45.0576V30.1162C973.86 9.60835 966.1 2.21085 950.13 2.21085H926.326V113.612H942.879ZM957.308 42.6406C957.308 48.7197 955.843 53.7002 950.716 53.7002H942.879V19.0565H949.764C954.744 19.0565 957.308 21.1806 957.308 30.6288V42.6406ZM979.72 113.612H996.42L998.69 93.91H1014.44L1016.71 113.612H1033.33L1017.59 2.13765H995.54L979.72 113.612ZM1006.53 25.7216L1012.61 78.017H1000.52L1006.53 25.7216ZM1081.01 113.612V96.9859H1057.21V2.21085H1040.73V113.612H1081.01ZM1105.4 113.612V2.21085H1088.85V113.612H1105.4ZM1159.6 113.612V96.84H1134.19L1159.53 16.786V2.21085H1117.05V19.0565H1140.71L1116.02 97.938V113.612H1159.6ZM1211.46 113.612V96.84H1186.48V65.3459H1207.14V48.5H1186.48V19.0565H1211.46V2.21085H1170V113.612H1211.46ZM1223.25 2.21085V113.612H1246.47C1264.92 113.612 1269.98 102.187 1269.98 84.9749V30.8486C1269.98 13.71 1265 2.21085 1246.61 2.21085H1223.25ZM1246.32 19.0565C1251.81 19.0565 1253.5 21.9131 1253.5 30.7021V84.7549C1253.5 93.5439 1251.96 96.62 1246.61 96.84H1239.73V19.0565H1246.32Z" fill="black" fill-opacity="0.8"/>
<path d="M731.282 78.31V87.978C731.282 95.009 730.184 99.33 724.324 99.33C717.952 99.33 717.293 94.203 717.293 86.879V29.1641C717.293 21.6934 718.099 17.4453 724.251 17.4453C730.477 17.4453 731.282 21.913 731.282 28.6513V37.3672H747.908V28.5048C747.908 12.831 742.928 0.672852 724.324 0.672852C705.721 0.672852 700.74 12.245 700.74 29.2372V87.0249C700.74 103.798 705.574 115.077 724.251 115.077C742.781 115.077 747.908 104.018 747.908 88.1239V78.31H731.282ZM800.862 113.612V96.84H775.887V65.3459H796.541V48.5H775.887V19.0565H800.862V2.21085H759.407V113.612H800.862ZM829.207 113.612L828.621 46.083L845.76 113.612H864.437L864.29 2.21085H847.737L848.25 66.957L832.869 2.21085H812.654V113.612H829.207ZM918.636 19.0565V2.21085H871.468V19.0565H886.702V113.612H903.328V19.0565H918.636ZM942.879 113.612V70.5459H946.907C950.643 70.3259 954.598 73.9149 955.403 85.0479L956.355 100.575C956.722 106.361 958.919 112.147 959.505 113.612H976.64C975.18 110.17 973.35 106.142 973.05 100.062L972.03 84.6819C971.22 72.8899 969.39 69.4469 964.56 65.3459C970.05 61.0243 973.86 54.3594 973.86 45.0576V30.1162C973.86 9.60835 966.1 2.21085 950.13 2.21085H926.326V113.612H942.879ZM957.308 42.6406C957.308 48.7197 955.843 53.7002 950.716 53.7002H942.879V19.0565H949.764C954.744 19.0565 957.308 21.1806 957.308 30.6288V42.6406ZM979.72 113.612H996.42L998.69 93.91H1014.44L1016.71 113.612H1033.33L1017.59 2.13765H995.54L979.72 113.612ZM1006.53 25.7216L1012.61 78.017H1000.52L1006.53 25.7216ZM1081.01 113.612V96.9859H1057.21V2.21085H1040.73V113.612H1081.01ZM1105.4 113.612V2.21085H1088.85V113.612H1105.4ZM1159.6 113.612V96.84H1134.19L1159.53 16.786V2.21085H1117.05V19.0565H1140.71L1116.02 97.938V113.612H1159.6ZM1211.46 113.612V96.84H1186.48V65.3459H1207.14V48.5H1186.48V19.0565H1211.46V2.21085H1170V113.612H1211.46ZM1223.25 2.21085V113.612H1246.47C1264.92 113.612 1269.98 102.187 1269.98 84.9749V30.8486C1269.98 13.71 1265 2.21085 1246.61 2.21085H1223.25ZM1246.32 19.0565C1251.81 19.0565 1253.5 21.9131 1253.5 30.7021V84.7549C1253.5 93.5439 1251.96 96.62 1246.61 96.84H1239.73V19.0565H1246.32Z" fill="white"/>
<path d="M731.282 230.311V239.979C731.282 247.01 730.184 251.331 724.324 251.331C717.952 251.331 717.293 246.204 717.293 238.88V181.165C717.293 173.694 718.099 169.446 724.251 169.446C730.477 169.446 731.282 173.914 731.282 180.652V189.368H747.908V180.506C747.908 164.832 742.928 152.674 724.324 152.674C705.721 152.674 700.74 164.246 700.74 181.238V239.026C700.74 255.799 705.574 267.078 724.251 267.078C742.781 267.078 747.908 256.019 747.908 240.125V230.311H731.282ZM799.764 265.613V248.987H775.96V154.212H759.48V265.613H799.764ZM805.403 238.44C805.403 255.213 810.311 267.078 829.061 267.078C847.737 267.078 852.718 255.433 852.718 238.44V181.312C852.718 164.539 847.811 152.674 829.061 152.674C810.384 152.674 805.403 164.319 805.403 181.312V238.44ZM829.061 169.446C835.433 169.446 836.092 174.134 836.092 181.385V238.367C836.092 245.911 835.286 250.306 829.061 250.306C822.615 250.306 821.956 245.618 821.956 238.367V181.385C821.956 173.841 822.835 169.446 829.061 169.446ZM894.173 154.212V238.514C894.173 245.472 893.514 250.306 887.142 250.306C880.916 250.306 880.11 245.472 880.11 238.514V154.212H863.631V238.807C863.631 256.019 868.611 267.078 887.142 267.078C905.672 267.078 910.652 256.019 910.652 238.807V154.212H894.173ZM923.689 154.212V265.613H946.907C965.36 265.613 970.42 254.188 970.42 236.976V182.85C970.42 165.711 965.44 154.212 947.054 154.212H923.689ZM946.761 171.058C952.254 171.058 953.938 173.914 953.938 182.703V236.756C953.938 245.545 952.4 248.621 947.054 248.841H940.169V171.058H946.761Z" fill="black" fill-opacity="0.8"/>
<path d="M731.282 230.311V239.979C731.282 247.01 730.184 251.331 724.324 251.331C717.952 251.331 717.293 246.204 717.293 238.88V181.165C717.293 173.694 718.099 169.446 724.251 169.446C730.477 169.446 731.282 173.914 731.282 180.652V189.368H747.908V180.506C747.908 164.832 742.928 152.674 724.324 152.674C705.721 152.674 700.74 164.246 700.74 181.238V239.026C700.74 255.799 705.574 267.078 724.251 267.078C742.781 267.078 747.908 256.019 747.908 240.125V230.311H731.282ZM799.764 265.613V248.987H775.96V154.212H759.48V265.613H799.764ZM805.403 238.44C805.403 255.213 810.311 267.078 829.061 267.078C847.737 267.078 852.718 255.433 852.718 238.44V181.312C852.718 164.539 847.811 152.674 829.061 152.674C810.384 152.674 805.403 164.319 805.403 181.312V238.44ZM829.061 169.446C835.433 169.446 836.092 174.134 836.092 181.385V238.367C836.092 245.911 835.286 250.306 829.061 250.306C822.615 250.306 821.956 245.618 821.956 238.367V181.385C821.956 173.841 822.835 169.446 829.061 169.446ZM894.173 154.212V238.514C894.173 245.472 893.514 250.306 887.142 250.306C880.916 250.306 880.11 245.472 880.11 238.514V154.212H863.631V238.807C863.631 256.019 868.611 267.078 887.142 267.078C905.672 267.078 910.652 256.019 910.652 238.807V154.212H894.173ZM923.689 154.212V265.613H946.907C965.36 265.613 970.42 254.188 970.42 236.976V182.85C970.42 165.711 965.44 154.212 947.054 154.212H923.689ZM946.761 171.058C952.254 171.058 953.938 173.914 953.938 182.703V236.756C953.938 245.545 952.4 248.621 947.054 248.841H940.169V171.058H946.761Z" fill="white"/>
<path d="M731.282 382.311V391.979C731.282 399.01 730.184 403.331 724.324 403.331C717.952 403.331 717.293 398.204 717.293 390.88V333.165C717.293 325.694 718.099 321.446 724.251 321.446C730.477 321.446 731.282 325.914 731.282 332.652V341.368H747.908V332.506C747.908 316.832 742.928 304.674 724.324 304.674C705.721 304.674 700.74 316.246 700.74 333.238V391.026C700.74 407.799 705.574 419.078 724.251 419.078C742.781 419.078 747.908 408.019 747.908 392.125V382.311H731.282ZM757.356 390.44C757.356 407.213 762.264 419.078 781.014 419.078C799.69 419.078 804.671 407.433 804.671 390.44V333.312C804.671 316.539 799.764 304.674 781.014 304.674C762.337 304.674 757.356 316.319 757.356 333.312V390.44ZM781.014 321.446C787.386 321.446 788.045 326.134 788.045 333.385V390.367C788.045 397.911 787.239 402.306 781.014 402.306C774.568 402.306 773.909 397.618 773.909 390.367V333.385C773.909 325.841 774.788 321.446 781.014 321.446ZM842.317 403.697H856.233L866.707 343.419L865.096 417.613H881.722V306.212H860.848L849.275 369.64L837.703 306.212H816.683V417.613H833.235L831.624 342.247L842.317 403.697ZM942.073 333.458C942.073 313.023 933.211 306.212 918.27 306.212H895.711V417.613H912.337V379.234H917.61C933.138 379.234 942.073 372.862 942.073 351.329V333.458ZM925.594 348.473C925.594 356.676 925.374 362.462 918.123 362.462H912.337V323.058H917.83C924.056 323.058 925.594 326.207 925.594 334.63V348.473ZM983.24 306.212V390.514C983.24 397.472 982.58 402.306 976.2 402.306C969.98 402.306 969.17 397.472 969.17 390.514V306.212H952.693V390.807C952.693 408.019 957.674 419.078 976.2 419.078C994.73 419.078 999.71 408.019 999.71 390.807V306.212H983.24ZM1053.55 323.058V306.212H1006.38V323.058H1021.61V417.613H1038.24V323.058H1053.55ZM1077.86 417.613V306.212H1061.31V417.613H1077.86ZM1108.55 417.613L1107.97 350.084L1125.11 417.613H1143.78L1143.64 306.212H1127.08L1127.6 370.958L1112.21 306.212H1092V417.613H1108.55ZM1178.35 374.4H1185.82V391.466C1185.82 398.424 1184.58 402.232 1178.79 402.232C1172.42 402.232 1171.76 397.838 1171.76 390.66V332.286C1171.76 325.255 1173.01 321.446 1178.79 321.446C1184.94 321.446 1185.82 325.841 1185.82 332.579V341.368H1202.45V332.359C1202.45 316.612 1197.47 304.674 1178.79 304.674C1160.19 304.674 1155.21 316.173 1155.21 333.165V390.733C1155.21 407.433 1160.12 419.078 1178.79 419.078C1197.25 419.078 1202.45 407.506 1202.45 391.612V357.774H1178.35V374.4Z" fill="black" fill-opacity="0.8"/>
<path d="M731.282 382.311V391.979C731.282 399.01 730.184 403.331 724.324 403.331C717.952 403.331 717.293 398.204 717.293 390.88V333.165C717.293 325.694 718.099 321.446 724.251 321.446C730.477 321.446 731.282 325.914 731.282 332.652V341.368H747.908V332.506C747.908 316.832 742.928 304.674 724.324 304.674C705.721 304.674 700.74 316.246 700.74 333.238V391.026C700.74 407.799 705.574 419.078 724.251 419.078C742.781 419.078 747.908 408.019 747.908 392.125V382.311H731.282ZM757.356 390.44C757.356 407.213 762.264 419.078 781.014 419.078C799.69 419.078 804.671 407.433 804.671 390.44V333.312C804.671 316.539 799.764 304.674 781.014 304.674C762.337 304.674 757.356 316.319 757.356 333.312V390.44ZM781.014 321.446C787.386 321.446 788.045 326.134 788.045 333.385V390.367C788.045 397.911 787.239 402.306 781.014 402.306C774.568 402.306 773.909 397.618 773.909 390.367V333.385C773.909 325.841 774.788 321.446 781.014 321.446ZM842.317 403.697H856.233L866.707 343.419L865.096 417.613H881.722V306.212H860.848L849.275 369.64L837.703 306.212H816.683V417.613H833.235L831.624 342.247L842.317 403.697ZM942.073 333.458C942.073 313.023 933.211 306.212 918.27 306.212H895.711V417.613H912.337V379.234H917.61C933.138 379.234 942.073 372.862 942.073 351.329V333.458ZM925.594 348.473C925.594 356.676 925.374 362.462 918.123 362.462H912.337V323.058H917.83C924.056 323.058 925.594 326.207 925.594 334.63V348.473ZM983.24 306.212V390.514C983.24 397.472 982.58 402.306 976.2 402.306C969.98 402.306 969.17 397.472 969.17 390.514V306.212H952.693V390.807C952.693 408.019 957.674 419.078 976.2 419.078C994.73 419.078 999.71 408.019 999.71 390.807V306.212H983.24ZM1053.55 323.058V306.212H1006.38V323.058H1021.61V417.613H1038.24V323.058H1053.55ZM1077.86 417.613V306.212H1061.31V417.613H1077.86ZM1108.55 417.613L1107.97 350.084L1125.11 417.613H1143.78L1143.64 306.212H1127.08L1127.6 370.958L1112.21 306.212H1092V417.613H1108.55ZM1178.35 374.4H1185.82V391.466C1185.82 398.424 1184.58 402.232 1178.79 402.232C1172.42 402.232 1171.76 397.838 1171.76 390.66V332.286C1171.76 325.255 1173.01 321.446 1178.79 321.446C1184.94 321.446 1185.82 325.841 1185.82 332.579V341.368H1202.45V332.359C1202.45 316.612 1197.47 304.674 1178.79 304.674C1160.19 304.674 1155.21 316.173 1155.21 333.165V390.733C1155.21 407.433 1160.12 419.078 1178.79 419.078C1197.25 419.078 1202.45 407.506 1202.45 391.612V357.774H1178.35V374.4Z" fill="white"/>
<path d="M719.271 577.613V466.212H702.718V577.613H719.271ZM749.959 577.613L749.373 510.084L766.512 577.613H785.188L785.042 466.212H768.489L769.002 530.958L753.621 466.212H733.406V577.613H749.959ZM839.388 483.058V466.212H792.22V483.058H807.454V577.613H824.08V483.058H839.388ZM888.46 577.613V560.841H863.484V529.347H884.139V512.501H863.484V483.058H888.46V466.212H847.005V577.613H888.46ZM916.805 577.613V534.547H920.833C924.568 534.327 928.523 537.916 929.329 549.049L930.281 564.576C930.647 570.362 932.845 576.148 933.431 577.613H950.569C949.104 574.171 947.273 570.143 946.98 564.063L945.955 548.683C945.149 536.891 943.318 533.448 938.484 529.347C943.978 525.025 947.786 518.36 947.786 509.059V494.117C947.786 473.609 940.022 466.212 924.056 466.212H900.252V577.613H916.805ZM931.233 506.642C931.233 512.721 929.769 517.701 924.642 517.701H916.805V483.058H923.689C928.67 483.058 931.233 485.182 931.233 494.63V506.642ZM976.72 577.613L976.13 510.084L993.27 577.613H1011.95L1011.8 466.212H995.25L995.76 530.958L980.38 466.212H960.164V577.613H976.72ZM1018.83 577.613H1035.53L1037.8 557.911H1053.55L1055.82 577.613H1072.44L1056.7 466.139H1034.65L1018.83 577.613ZM1045.64 489.723L1051.72 542.018H1039.63L1045.64 489.723ZM1115.22 483.058V466.212H1068.05V483.058H1083.28V577.613H1099.91V483.058H1115.22ZM1139.53 577.613V466.212H1122.98V577.613H1139.53ZM1151.55 550.44C1151.55 567.213 1156.45 579.078 1175.2 579.078C1193.88 579.078 1198.86 567.433 1198.86 550.44V493.312C1198.86 476.539 1193.95 464.674 1175.2 464.674C1156.53 464.674 1151.55 476.319 1151.55 493.312V550.44ZM1175.2 481.446C1181.58 481.446 1182.23 486.134 1182.23 493.385V550.367C1182.23 557.911 1181.43 562.306 1175.2 562.306C1168.76 562.306 1168.1 557.618 1168.1 550.367V493.385C1168.1 485.841 1168.98 481.446 1175.2 481.446ZM1227.35 577.613L1226.77 510.084L1243.9 577.613H1262.58L1262.43 466.212H1245.88L1246.39 530.958L1231.01 466.212H1210.8V577.613H1227.35ZM1269.47 577.613H1286.17L1288.44 557.911H1304.18L1306.45 577.613H1323.08L1307.33 466.139H1285.29L1269.47 577.613ZM1296.27 489.723L1302.35 542.018H1290.27L1296.27 489.723ZM1370.76 577.613V560.987H1346.96V466.212H1330.48V577.613H1370.76ZM1396.69 558.863V576.863L1378.09 593.813V558.863H1396.69ZM1449.06 577.613V466.212H1432.5V577.613H1449.06ZM1479.74 577.613L1479.16 510.084L1496.3 577.613H1514.97L1514.83 466.212H1498.27L1498.79 530.958L1483.41 466.212H1463.19V577.613H1479.74ZM1557.01 542.311V551.979C1557.01 559.01 1555.92 563.331 1550.06 563.331C1543.68 563.331 1543.03 558.204 1543.03 550.88V493.165C1543.03 485.694 1543.83 481.446 1549.98 481.446C1556.21 481.446 1557.01 485.914 1557.01 492.652V501.368H1573.64V492.506C1573.64 476.832 1568.66 464.674 1550.06 464.674C1531.45 464.674 1526.47 476.246 1526.47 493.238V551.026C1526.47 567.799 1531.31 579.078 1549.98 579.078C1568.51 579.078 1573.64 568.019 1573.64 552.125V542.311H1557.01ZM1582.65 569.63C1582.65 576.075 1585.65 579.078 1592.1 579.078C1598.91 579.078 1601.91 576.075 1601.91 569.63C1601.91 562.965 1598.91 560.035 1592.1 560.035C1585.65 560.035 1582.65 562.965 1582.65 569.63Z" fill="black" fill-opacity="0.8"/>
<path d="M719.271 577.613V466.212H702.718V577.613H719.271ZM749.959 577.613L749.373 510.084L766.512 577.613H785.188L785.042 466.212H768.489L769.002 530.958L753.621 466.212H733.406V577.613H749.959ZM839.388 483.058V466.212H792.22V483.058H807.454V577.613H824.08V483.058H839.388ZM888.46 577.613V560.841H863.484V529.347H884.139V512.501H863.484V483.058H888.46V466.212H847.005V577.613H888.46ZM916.805 577.613V534.547H920.833C924.568 534.327 928.523 537.916 929.329 549.049L930.281 564.576C930.647 570.362 932.845 576.148 933.431 577.613H950.569C949.104 574.171 947.273 570.143 946.98 564.063L945.955 548.683C945.149 536.891 943.318 533.448 938.484 529.347C943.978 525.025 947.786 518.36 947.786 509.059V494.117C947.786 473.609 940.022 466.212 924.056 466.212H900.252V577.613H916.805ZM931.233 506.642C931.233 512.721 929.769 517.701 924.642 517.701H916.805V483.058H923.689C928.67 483.058 931.233 485.182 931.233 494.63V506.642ZM976.72 577.613L976.13 510.084L993.27 577.613H1011.95L1011.8 466.212H995.25L995.76 530.958L980.38 466.212H960.164V577.613H976.72ZM1018.83 577.613H1035.53L1037.8 557.911H1053.55L1055.82 577.613H1072.44L1056.7 466.139H1034.65L1018.83 577.613ZM1045.64 489.723L1051.72 542.018H1039.63L1045.64 489.723ZM1115.22 483.058V466.212H1068.05V483.058H1083.28V577.613H1099.91V483.058H1115.22ZM1139.53 577.613V466.212H1122.98V577.613H1139.53ZM1151.55 550.44C1151.55 567.213 1156.45 579.078 1175.2 579.078C1193.88 579.078 1198.86 567.433 1198.86 550.44V493.312C1198.86 476.539 1193.95 464.674 1175.2 464.674C1156.53 464.674 1151.55 476.319 1151.55 493.312V550.44ZM1175.2 481.446C1181.58 481.446 1182.23 486.134 1182.23 493.385V550.367C1182.23 557.911 1181.43 562.306 1175.2 562.306C1168.76 562.306 1168.1 557.618 1168.1 550.367V493.385C1168.1 485.841 1168.98 481.446 1175.2 481.446ZM1227.35 577.613L1226.77 510.084L1243.9 577.613H1262.58L1262.43 466.212H1245.88L1246.39 530.958L1231.01 466.212H1210.8V577.613H1227.35ZM1269.47 577.613H1286.17L1288.44 557.911H1304.18L1306.45 577.613H1323.08L1307.33 466.139H1285.29L1269.47 577.613ZM1296.27 489.723L1302.35 542.018H1290.27L1296.27 489.723ZM1370.76 577.613V560.987H1346.96V466.212H1330.48V577.613H1370.76ZM1396.69 558.863V576.863L1378.09 593.813V558.863H1396.69ZM1449.06 577.613V466.212H1432.5V577.613H1449.06ZM1479.74 577.613L1479.16 510.084L1496.3 577.613H1514.97L1514.83 466.212H1498.27L1498.79 530.958L1483.41 466.212H1463.19V577.613H1479.74ZM1557.01 542.311V551.979C1557.01 559.01 1555.92 563.331 1550.06 563.331C1543.68 563.331 1543.03 558.204 1543.03 550.88V493.165C1543.03 485.694 1543.83 481.446 1549.98 481.446C1556.21 481.446 1557.01 485.914 1557.01 492.652V501.368H1573.64V492.506C1573.64 476.832 1568.66 464.674 1550.06 464.674C1531.45 464.674 1526.47 476.246 1526.47 493.238V551.026C1526.47 567.799 1531.31 579.078 1549.98 579.078C1568.51 579.078 1573.64 568.019 1573.64 552.125V542.311H1557.01ZM1582.65 569.63C1582.65 576.075 1585.65 579.078 1592.1 579.078C1598.91 579.078 1601.91 576.075 1601.91 569.63C1601.91 562.965 1598.91 560.035 1592.1 560.035C1585.65 560.035 1582.65 562.965 1582.65 569.63Z" fill="white"/>
<path d="M98.998 578C35.6105 514.613 0 428.642 0 338.999C0 249.356 35.6105 163.385 98.998 99.998C162.385 36.6105 248.356 1 337.999 1C427.642 1 513.613 36.6105 577 99.998L481.4 195.598C443.367 157.566 391.784 136.2 337.999 136.2C284.213 136.2 232.63 157.566 194.598 195.598C156.566 233.63 135.2 285.213 135.2 338.999C135.2 392.784 156.566 444.367 194.598 482.4L98.998 578Z" fill="white"/>
<path d="M194.598 482.4C232.63 520.432 284.213 541.798 337.999 541.798C391.784 541.798 443.367 520.432 481.399 482.4C519.432 444.367 540.798 392.785 540.798 338.999C540.798 285.213 519.432 233.63 481.4 195.598L424.039 252.959C446.858 275.778 459.678 306.728 459.678 338.999C459.678 371.27 446.858 402.22 424.039 425.039C401.22 447.859 370.27 460.679 337.999 460.679C305.727 460.679 274.777 447.859 251.958 425.039L194.598 482.4Z" fill="white"/>
<path d="M251.958 425.039C229.139 402.22 216.319 371.27 216.319 338.999C216.319 306.728 229.139 275.778 251.958 252.959C274.777 230.139 305.727 217.319 337.999 217.319C370.27 217.319 401.22 230.139 424.039 252.959L389.623 287.375C375.931 273.683 357.361 265.991 337.999 265.991C318.636 265.991 300.066 273.683 286.374 287.375C272.683 301.066 264.991 319.636 264.991 338.999C264.991 358.362 272.683 376.932 286.374 390.623L251.958 425.039Z" fill="white"/>
<path d="M306.132 370.866C323.731 388.465 352.266 388.465 369.865 370.866C387.465 353.266 387.465 324.732 369.865 307.132C352.266 289.533 323.731 289.533 306.132 307.132C288.532 324.732 288.532 353.266 306.132 370.866Z" fill="white"/>
</svg>
