<?xml version="1.0" encoding="UTF-8"?>
<svg version="1.1" xmlns="http://www.w3.org/2000/svg" width="578" height="118">
<path d="M0 0 C12.07715585 8.69813902 22.46173585 20.99761209 25.27685547 36.05029297 C27.75155738 54.56613956 25.73476507 71.12008443 14.65625 86.5390625 C5.53156201 98.08111185 -6.70213226 106.69662979 -21.4375 109.1875 C-40.77529383 111.184208 -56.87689401 108.46130148 -72.4375 96.1875 C-82.53520036 87.90491856 -90.68926354 75.26789482 -92.4375 62.1875 C-94.14656032 42.74116502 -91.84485178 26.88187408 -79.4375 11.1875 C-59.87307854 -12.14547805 -25.31221472 -15.94197871 0 0 Z " fill="#F4F8FB" transform="translate(92.4375,8.8125)"/>
<path d="M0 0 C6.23125227 5.94801353 8.79830717 11.859207 9.125 20.375 C8.96141329 29.16505945 6.038662 36.47926214 -0.25 42.625 C-6.93224014 47.68602154 -13.74741608 50.35798137 -22.25 49.625 C-25.3118014 48.77749337 -28.28202657 47.75565654 -31.25 46.625 C-31.25 45.305 -31.25 43.985 -31.25 42.625 C-32.28125 43.40875 -33.3125 44.1925 -34.375 45 C-41.21233367 50.19637359 -48.96614604 50.56058821 -57.25 49.625 C-65.03483874 47.20975917 -71.09802568 42.39505015 -75.56640625 35.6328125 C-78.9156173 29.2611427 -79.32614929 22.67336709 -78.25 15.625 C-75.32386201 6.91896399 -71.0176377 0.67169234 -62.8984375 -3.6171875 C-55.57845552 -6.90324752 -49.27111068 -7.66054417 -41.6875 -4.875 C-39.9859375 -4.1325 -39.9859375 -4.1325 -38.25 -3.375 C-38.25 -2.055 -38.25 -0.735 -38.25 0.625 C-37.693125 0.21507812 -37.13625 -0.19484375 -36.5625 -0.6171875 C-24.29152194 -9.28149296 -12.07508677 -9.35819224 0 0 Z M-34.25 10.625 C-33.26 11.12 -33.26 11.12 -32.25 11.625 C-29.89018187 10.68921005 -27.55368736 9.69152192 -25.25 8.625 C-22.34083293 19.61230063 -22.83238864 27.07400857 -27.25 37.625 C-21.93839784 39.50619243 -17.74812732 40.13979018 -12.25 38.625 C-6.83989199 35.97298627 -3.39470742 32.22304988 -1.25 26.625 C-0.2767757 20.7856542 -0.35966121 15.39446119 -3.25 10.125 C-6.59219544 5.60597517 -10.76730296 3.20323405 -16.296875 2.28515625 C-24.02629917 1.91066864 -29.24822339 5.01694744 -34.25 10.625 Z M-64 9.5 C-68.28776076 15.45522328 -68.98326334 20.38547937 -68.25 27.625 C-66.48912588 32.80979602 -63.6918063 35.48960732 -59.25 38.625 C-54.37363507 40.95717453 -50.38843342 40.86850089 -45.25 39.625 C-40.56141535 37.82169821 -38.13038464 35.72400891 -35.25 31.625 C-37.89 32.285 -40.53 32.945 -43.25 33.625 C-46.53450938 27.05598123 -46.96389847 20.15728807 -44.875 13.1875 C-44.35052873 11.66065139 -43.81107145 10.1387819 -43.25 8.625 C-42.92 7.635 -42.59 6.645 -42.25 5.625 C-50.02664151 1.2088529 -57.97617823 3.20236815 -64 9.5 Z M-35.25 11.625 C-36.31375135 14.81625404 -36.38335484 17.14970971 -36.375 20.5 C-36.37757813 21.52867188 -36.38015625 22.55734375 -36.3828125 23.6171875 C-36.25995061 26.399648 -35.87944236 28.91739874 -35.25 31.625 C-32.28965301 28.66465301 -32.29680916 26.45196188 -32.0625 22.3125 C-32.26338858 18.36169123 -33.02895872 15.36443891 -34.25 11.625 C-34.58 11.625 -34.91 11.625 -35.25 11.625 Z " fill="#1475BB" transform="translate(458.25,48.375)"/>
<path d="M0 0 C6.49615634 3.83863784 10.99812518 9.56024489 13.46166992 16.79394531 C14.07227589 20.10101782 14.01293746 23.37687792 13.98828125 26.7265625 C13.9868663 27.45337219 13.98545135 28.18018188 13.98399353 28.92901611 C13.97841292 31.24178244 13.96586404 33.55445062 13.953125 35.8671875 C13.94810749 37.43880068 13.94354502 39.01041539 13.93945312 40.58203125 C13.92844985 44.42712093 13.91119861 48.2721376 13.890625 52.1171875 C9.64057829 52.19204606 5.39089366 52.24611917 1.14038086 52.28198242 C-0.30174455 52.29695258 -1.74382536 52.31733618 -3.18579102 52.34350586 C-13.82661117 52.53161048 -23.13384886 52.56128502 -31.421875 44.9921875 C-38.03462246 38.58512425 -40.2639037 33.37396755 -40.671875 24.1796875 C-40.42720379 16.6193472 -38.52268914 11.0302176 -33.53515625 5.3125 C-24.16883936 -3.46432841 -11.59494951 -6.04772546 0 0 Z " fill="#1675B8" transform="translate(269.109375,45.8828125)"/>
<path d="M0 0 C3.96 0 7.92 0 12 0 C12 7.26 12 14.52 12 22 C18.88025613 21.88213307 18.88025613 21.88213307 25.75976562 21.72973633 C34.97792153 21.65065067 41.37913852 23.68027848 48.23828125 30.02734375 C54.13064398 36.6252222 55.36327935 44.04706512 55.27734375 52.640625 C54.64222349 60.33363096 50.78345236 66.94418373 45 72 C37.34911446 77.66998084 29.26714761 78.12736506 20 77 C16.94528897 76.08265538 14.58089996 74.85361393 12 73 C10.6696875 72.13375 10.6696875 72.13375 9.3125 71.25 C3.05448738 65.16112286 -0.07753601 57.98401287 -0.22705078 49.27001953 C-0.2267357 46.9742595 -0.21553042 44.67848353 -0.1953125 42.3828125 C-0.1924826 41.17051971 -0.18965271 39.95822693 -0.18673706 38.709198 C-0.17556667 34.84769711 -0.15046737 30.98643047 -0.125 27.125 C-0.11496616 24.50260752 -0.10584102 21.8802114 -0.09765625 19.2578125 C-0.07563754 12.83845178 -0.04112886 6.41926558 0 0 Z M12 34 C11.91225934 37.20815845 11.85936294 40.41600462 11.8125 43.625 C11.78736328 44.52863281 11.76222656 45.43226562 11.73632812 46.36328125 C11.67804848 51.68615504 11.97224407 55.41531745 15 60 C20.17546698 64.67054337 23.39604098 65.35784069 30.23828125 65.27734375 C35.43664786 64.75530128 37.95805668 62.124202 41.375 58.4375 C43.67768515 53.56643525 43.77379561 49.29813119 43 44 C40.66651021 39.06377159 37.80170942 36.5230221 33 34 C29.35872451 33.52519274 25.78900191 33.62091592 22.125 33.75 C21.15046875 33.76804688 20.1759375 33.78609375 19.171875 33.8046875 C16.78022193 33.85158266 14.39063403 33.91719093 12 34 Z " fill="#0F73BA" transform="translate(323,21)"/>
<path d="M0 0 C3.68058148 0.70106314 4.45847153 2.52102336 6.625 5.5 C7.511875 6.180625 8.39875 6.86125 9.3125 7.5625 C11.72894436 9.58708852 12.29640682 10.43313028 12.625 13.5 C13.553125 13.29375 14.48125 13.0875 15.4375 12.875 C20.62310252 12.09609263 25.56534346 13.39291421 30.625 14.5 C30.625 15.49 30.625 16.48 30.625 17.5 C31.285 17.5 31.945 17.5 32.625 17.5 C32.01585841 21.26314135 30.9370315 24.33503926 29.25 27.75 C28.82976562 28.62140625 28.40953125 29.4928125 27.9765625 30.390625 C26.625 32.5 26.625 32.5 23.625 33.5 C24.11484375 34.00144531 24.6046875 34.50289062 25.109375 35.01953125 C27.1596574 38.3750192 26.99084055 41.3828619 26.875 45.1875 C26.86984375 45.87650391 26.8646875 46.56550781 26.859375 47.27539062 C26.77961101 52.34538899 26.77961101 52.34538899 25.625 53.5 C20.25596252 53.03312718 15.39015353 51.58981354 10.2734375 49.92578125 C6.95857805 49.39286137 5.56882692 49.91982373 2.625 51.5 C0.8116007 52.81835453 -0.9595109 54.19652901 -2.6875 55.625 C-3.57050781 56.34945312 -4.45351563 57.07390625 -5.36328125 57.8203125 C-6.35908203 58.65175781 -6.35908203 58.65175781 -7.375 59.5 C-11.25 57.625 -11.25 57.625 -12.375 56.5 C-12.3440625 54.829375 -12.3440625 54.829375 -12.3125 53.125 C-12.05017806 49.40193585 -12.05017806 49.40193585 -14.375 46.5 C-14 42.8125 -14 42.8125 -13.375 39.5 C-14.11105469 39.42265625 -14.84710938 39.3453125 -15.60546875 39.265625 C-19.06314938 38.30976407 -20.33508959 36.92581147 -22.6875 34.25 C-23.73357422 33.09757812 -23.73357422 33.09757812 -24.80078125 31.921875 C-26.59100572 29.16768351 -26.71170385 27.71866049 -26.375 24.5 C-20.48785501 21.92437407 -14.81367624 20.3435044 -8.375 20.5 C-8.10945313 19.30761719 -7.84390625 18.11523438 -7.5703125 16.88671875 C-7.21386783 15.32023825 -6.85707903 13.75383602 -6.5 12.1875 C-6.32597656 11.40181641 -6.15195312 10.61613281 -5.97265625 9.80664062 C-5.71162109 8.6706543 -5.71162109 8.6706543 -5.4453125 7.51171875 C-5.28820801 6.81522217 -5.13110352 6.11872559 -4.96923828 5.40112305 C-4.00480127 2.31563785 -3.25330064 0.6849054 0 0 Z " fill="#EAEAF2" transform="translate(54.375,27.5)"/>
<path d="M0 0 C7.03534581 5.77040484 13.93008657 12.80522775 15.03564453 22.2109375 C15.91753999 34.10961479 14.52607436 43.11302143 6.8125 52.5625 C-0.22713219 59.78438804 -7.20114895 63.47658162 -17.30200195 63.96801758 C-25.58546899 64.07354458 -32.35134225 63.37823504 -39.1875 58.3125 C-40.25677734 57.58546875 -40.25677734 57.58546875 -41.34765625 56.84375 C-48.00956127 51.76326916 -52.73504927 43.60094168 -54.1875 35.3125 C-55.09347423 23.51998301 -53.74191123 15.23555439 -46.125 6.0625 C-34.08486139 -6.55381686 -14.81061475 -10.47301659 0 0 Z M-26.1875 -1.6875 C-27.97346189 0.99144284 -28.57919178 2.3156669 -29.2578125 5.32421875 C-29.51884766 6.46020508 -29.51884766 6.46020508 -29.78515625 7.61914062 C-30.04619141 8.79766602 -30.04619141 8.79766602 -30.3125 10 C-30.49425781 10.79728516 -30.67601563 11.59457031 -30.86328125 12.41601562 C-31.31023427 14.38025651 -31.74960416 16.34622014 -32.1875 18.3125 C-33.40566406 18.456875 -34.62382813 18.60125 -35.87890625 18.75 C-38.99877714 19.14058556 -42.05509732 19.62190678 -45.125 20.3125 C-46.25228516 20.56 -46.25228516 20.56 -47.40234375 20.8125 C-49.19598859 21.15759176 -49.19598859 21.15759176 -50.1875 22.3125 C-50.69582861 25.76792421 -50.35584538 27.06609703 -48.359375 29.98828125 C-47.56015625 30.85839844 -46.7609375 31.72851562 -45.9375 32.625 C-45.14859375 33.50800781 -44.3596875 34.39101562 -43.546875 35.30078125 C-41.19696931 37.74504527 -41.19696931 37.74504527 -37.1875 37.3125 C-37.39375 38.385 -37.6 39.4575 -37.8125 40.5625 C-38.20233209 44.46082088 -37.94915465 45.10007094 -36.1875 48.3125 C-36.208125 49.323125 -36.22875 50.33375 -36.25 51.375 C-36.48489664 54.33021784 -36.48489664 54.33021784 -34.6875 56.1875 C-34.1925 56.55875 -33.6975 56.93 -33.1875 57.3125 C-29.63509153 55.74012248 -26.90002025 53.542449 -23.875 51.125 C-18.70316109 47.33872006 -18.70316109 47.33872006 -14.5 47.125 C-11.33021228 48.261339 -8.17931267 49.4304435 -5.05078125 50.67578125 C-2.68131028 51.48547468 -0.66709807 51.61305734 1.8125 51.3125 C3.78382637 49.34117363 3.04240968 45.68456884 3.0625 43 C3.083125 42.32259766 3.10375 41.64519531 3.125 40.94726562 C3.15774509 36.75998739 2.77614386 34.34633542 -0.1875 31.3125 C0.41578125 31.08304688 1.0190625 30.85359375 1.640625 30.6171875 C4.42044633 28.94729483 5.16702908 27.34042407 6.5625 24.4375 C6.99046875 23.57382812 7.4184375 22.71015625 7.859375 21.8203125 C9.04934577 19.13646199 9.04934577 19.13646199 8.8125 15.3125 C8.1525 15.3125 7.4925 15.3125 6.8125 15.3125 C6.8125 14.3225 6.8125 13.3325 6.8125 12.3125 C0.50911213 10.9332777 -4.8371923 9.90132051 -11.1875 11.3125 C-11.39375 10.590625 -11.6 9.86875 -11.8125 9.125 C-13.58391028 5.50166079 -16.05179594 3.79493238 -19.1875 1.3125 C-19.8475 0.3225 -20.5075 -0.6675 -21.1875 -1.6875 C-23.6875 -2.1875 -23.6875 -2.1875 -26.1875 -1.6875 Z " fill="#FAFBFC" transform="translate(78.1875,29.6875)"/>
<path d="M0 0 C0.84064499 0.00007553 1.68128998 0.00015106 2.54740906 0.00022888 C3.45062393 0.00539017 4.35383881 0.01055145 5.28442383 0.01586914 C6.21241287 0.01728409 7.14040192 0.01869904 8.09651184 0.02015686 C11.06152566 0.02575602 14.02646407 0.03830835 16.99145508 0.05102539 C19.00121961 0.0560405 21.01098533 0.06060339 23.02075195 0.06469727 C27.9485154 0.07572518 32.87622245 0.09298922 37.80395508 0.11352539 C37.80395508 3.41352539 37.80395508 6.71352539 37.80395508 10.11352539 C36.56718018 10.13858154 35.33040527 10.1636377 34.05615234 10.18945312 C29.48458794 10.28334792 24.9131819 10.38361168 20.34179688 10.48583984 C18.36006362 10.52925683 16.3782913 10.57092676 14.39648438 10.61083984 C11.55432338 10.66837922 8.71236025 10.73211984 5.87036133 10.79711914 C4.53286583 10.82218788 4.53286583 10.82218788 3.16835022 10.84776306 C-0.83552887 10.55011239 -0.83552887 10.55011239 -4.19604492 12.11352539 C-4.26752691 13.46596456 -4.28003947 14.82186906 -4.25854492 16.17602539 C-4.23791992 17.47540039 -4.21729492 18.77477539 -4.19604492 20.11352539 C-3.29885742 20.12287109 -2.40166992 20.1322168 -1.47729492 20.1418457 C1.88543847 20.1861379 5.24694855 20.24787201 8.60913086 20.32104492 C10.05790724 20.34908576 11.5068318 20.3703835 12.95581055 20.38452148 C27.9814891 20.53985241 27.9814891 20.53985241 34.80395508 25.11352539 C39.66951757 30.22860391 40.1572596 34.55979659 40.08520508 41.38696289 C39.55858328 46.49226864 36.91232861 49.11328586 33.24145508 52.42602539 C29.93130157 54.71767012 27.44360529 55.23856835 23.51611328 55.22705078 C22.65544754 55.22697525 21.7947818 55.22689972 20.90803528 55.2268219 C19.98294662 55.22166061 19.05785797 55.21649933 18.10473633 55.21118164 C17.15455124 55.20976669 16.20436615 55.20835175 15.22538757 55.20689392 C12.18904479 55.20129414 9.1527756 55.18874171 6.11645508 55.17602539 C4.05851343 55.17101036 2.00057064 55.16644746 -0.05737305 55.16235352 C-5.10362539 55.15132479 -10.14982267 55.13406032 -15.19604492 55.11352539 C-15.19604492 51.81352539 -15.19604492 48.51352539 -15.19604492 45.11352539 C-13.96974365 45.09894287 -12.74344238 45.08436035 -11.47998047 45.06933594 C-6.93427226 45.01140456 -2.38906211 44.93417159 2.15625 44.85107422 C4.12426679 44.81780053 6.09237957 44.78977624 8.06054688 44.76708984 C10.8881932 44.73358861 13.7149579 44.68127576 16.54223633 44.62524414 C17.42357742 44.61885422 18.30491852 44.61246429 19.21296692 44.60588074 C20.44390327 44.5761895 20.44390327 44.5761895 21.69970703 44.54589844 C22.42140579 44.53479538 23.14310455 44.52369232 23.88667297 44.51225281 C26.37466291 43.99483818 27.2760495 43.11605719 28.80395508 41.11352539 C29.31171791 37.05950118 29.31171791 37.05950118 27.68212891 33.45141602 C24.92988374 31.490893 22.73071861 31.72774753 19.37817383 31.70727539 C17.47068359 31.6744043 17.47068359 31.6744043 15.5246582 31.64086914 C14.18026957 31.63007872 12.83586635 31.62097904 11.49145508 31.61352539 C8.87023635 31.59559815 6.24906709 31.56480337 3.62817383 31.51977539 C2.46374756 31.51268555 1.29932129 31.5055957 0.09960938 31.49829102 C-4.23463019 30.9922712 -7.63348848 29.57215884 -10.84057617 26.57836914 C-14.97793087 21.16798222 -16.00457644 17.88082341 -15.19604492 11.11352539 C-13.6108495 6.8178922 -11.19689439 3.43659928 -7.19604492 1.11352539 C-4.4401914 0.19490755 -2.83643802 -0.00851783 0 0 Z " fill="#1777BC" transform="translate(537.196044921875,42.886474609375)"/>
<path d="M0 0 C0.87698044 0.00045822 1.75396088 0.00091644 2.65751648 0.00138855 C4.50061405 0.00439704 6.34370939 0.01224106 8.18676758 0.0246582 C11.01978457 0.04302103 13.85247633 0.04516697 16.68554688 0.04492188 C18.47786743 0.04983355 20.27018576 0.05566033 22.0625 0.0625 C22.91346756 0.06361282 23.76443512 0.06472565 24.64118958 0.06587219 C30.58313679 0.11438679 30.58313679 0.11438679 31.69921875 1.23046875 C31.77101839 2.74974913 31.78313882 4.27214357 31.76171875 5.79296875 C31.75269531 6.61925781 31.74367187 7.44554687 31.734375 8.296875 C31.72277344 8.93496094 31.71117187 9.57304688 31.69921875 10.23046875 C29.85191162 10.26019775 29.85191162 10.26019775 27.96728516 10.29052734 C23.40864214 10.36646057 18.85032348 10.45519638 14.29199219 10.54785156 C12.31712231 10.58619224 10.34218139 10.62103605 8.3671875 10.65234375 C5.5322933 10.69788422 2.69789045 10.7558959 -0.13671875 10.81640625 C-1.46647232 10.83373306 -1.46647232 10.83373306 -2.8230896 10.85140991 C-3.64378937 10.8712796 -4.46448914 10.89114929 -5.31005859 10.91162109 C-6.03397797 10.92494476 -6.75789734 10.93826843 -7.50375366 10.95199585 C-9.5523162 11.08834796 -9.5523162 11.08834796 -11.30078125 13.23046875 C-11.46759234 16.31394701 -11.46759234 16.31394701 -11.30078125 19.23046875 C-4.99970699 21.90555168 1.04243483 21.34428334 7.73632812 21.15234375 C14.82326865 21.02935997 21.86648827 20.95196814 27.57421875 25.54296875 C31.41267858 30.39749148 33.48817981 33.89930043 33.69921875 40.23046875 C32.93386271 45.38986885 31.34165302 49.17199989 27.22070312 52.47119141 C22.33161389 55.94167981 18.13822984 56.01291408 12.29296875 55.81640625 C11.32766235 55.80791656 10.36235596 55.79942688 9.36779785 55.79067993 C6.31042812 55.75732106 3.25577958 55.68207549 0.19921875 55.60546875 C-1.88407626 55.57534648 -3.96741297 55.54797466 -6.05078125 55.5234375 C-11.13514941 55.45758717 -16.21750538 55.35418802 -21.30078125 55.23046875 C-21.30078125 52.26046875 -21.30078125 49.29046875 -21.30078125 46.23046875 C-20.14030273 46.21588623 -18.97982422 46.20130371 -17.78417969 46.1862793 C-13.47511107 46.12826934 -9.16656355 46.05103668 -4.85791016 45.96801758 C-2.99373843 45.93478091 -1.12946638 45.90674502 0.73486328 45.8840332 C3.41612466 45.85046387 6.09646771 45.79814766 8.77734375 45.7421875 C9.609776 45.73579758 10.44220825 45.72940765 11.29986572 45.7228241 C14.76112348 45.6350444 17.12077421 45.53115035 20.22558594 43.91723633 C22.03411217 42.15626129 22.03411217 42.15626129 22.19921875 38.73046875 C22.0497796 35.27150559 22.0497796 35.27150559 20.0871582 33.53271484 C16.91781497 31.80433566 14.5937923 31.87748166 10.9921875 31.89453125 C9.02862305 31.87519531 9.02862305 31.87519531 7.02539062 31.85546875 C4.95840039 31.85155075 2.89189473 31.85543198 0.82495117 31.87011719 C-13.5404296 31.93195549 -13.5404296 31.93195549 -19.30078125 26.23046875 C-22.71134085 21.11462934 -22.06525089 15.18528493 -21.30078125 9.23046875 C-19.35205712 5.0911099 -16.95895992 2.92497965 -12.76342773 1.16772461 C-8.42101384 -0.00766332 -4.47545815 -0.03824537 0 0 Z " fill="#1375BB" transform="translate(161.30078125,42.76953125)"/>
<path d="M0 0 C3.63 0 7.26 0 11 0 C11.33 14.19 11.66 28.38 12 43 C14.31 42.01 16.62 41.02 19 40 C22.1328125 39.33984375 22.1328125 39.33984375 25.125 38.9375 C29.02212488 38.40607388 32.53306601 37.92540797 36 36 C37.96661812 32.50714145 38.33885968 29.14577445 38.625 25.1875 C38.810625 22.6196875 38.810625 22.6196875 39 20 C42.63 20 46.26 20 50 20 C50.45525123 27.58752051 50.51864702 33.64946906 46 40 C43.75 42.5 43.75 42.5 42 44 C43.52012833 47.45483712 45.62614635 50.31495464 47.87890625 53.31640625 C50.24110087 56.8638135 50.10687563 60.06056628 50.0625 64.1875 C50.05347656 65.27417969 50.04445313 66.36085938 50.03515625 67.48046875 C50.02355469 68.31191406 50.01195312 69.14335938 50 70 C46.37 70 42.74 70 39 70 C38.938125 68.30875 38.87625 66.6175 38.8125 64.875 C38.46339893 61.25831291 38.15997693 58.41396305 36 55.4375 C32.12771259 52.29126648 28.98038973 51.13281039 24 51 C19.08447737 51.69232713 16.62403215 53.19995879 13.5625 57.125 C11.54076327 61.28425574 11.28144605 65.42650176 11 70 C7.37 70 3.74 70 0 70 C0 46.9 0 23.8 0 0 Z " fill="#0D72BA" transform="translate(469,28)"/>
<path d="M0 0 C12.07715585 8.69813902 22.46173585 20.99761209 25.27685547 36.05029297 C27.75155738 54.56613956 25.73476507 71.12008443 14.65625 86.5390625 C5.53156201 98.08111185 -6.70213226 106.69662979 -21.4375 109.1875 C-40.77529383 111.184208 -56.87689401 108.46130148 -72.4375 96.1875 C-82.53520036 87.90491856 -90.68926354 75.26789482 -92.4375 62.1875 C-94.14656032 42.74116502 -91.84485178 26.88187408 -79.4375 11.1875 C-59.87307854 -12.14547805 -25.31221472 -15.94197871 0 0 Z M-76.4375 13.1875 C-88.25973357 27.19477674 -90.70412263 42.46893543 -89.4375 60.1875 C-87.04970184 74.11152783 -79.34816193 86.34302609 -68.4375 95.1875 C-53.72294506 105.57708004 -38.67130608 107.98494309 -21.00390625 105.75390625 C-5.82496774 102.50847584 5.77315972 93.62695887 14.5625 81.1875 C20.63047415 71.10027494 23.13640675 61.09717115 23.0625 49.375 C23.05391968 47.79114502 23.05391968 47.79114502 23.04516602 46.17529297 C22.67807675 30.11977236 15.40482861 18.23544546 3.9453125 7.22265625 C-20.5125223 -13.66674036 -54.88978372 -9.19455546 -76.4375 13.1875 Z " fill="#4A95C9" transform="translate(92.4375,8.8125)"/>
<path d="M0 0 C2.10640086 1.51930608 3.82953502 2.94401127 5.57421875 4.87109375 C6.30125 5.66515625 7.02828125 6.45921875 7.77734375 7.27734375 C10.91332928 12.14024022 9.98702125 18.19828538 9.82421875 23.74609375 C9.80617188 24.91140625 9.788125 26.07671875 9.76953125 27.27734375 C9.72256505 30.14228186 9.65082704 33.00679499 9.57421875 35.87109375 C4.29421875 35.87109375 -0.98578125 35.87109375 -6.42578125 35.87109375 C-6.42578125 35.21109375 -6.42578125 34.55109375 -6.42578125 33.87109375 C-5.76578125 33.87109375 -5.10578125 33.87109375 -4.42578125 33.87109375 C-3.76578125 31.89109375 -3.10578125 29.91109375 -2.42578125 27.87109375 C-3.74578125 27.87109375 -5.06578125 27.87109375 -6.42578125 27.87109375 C-6.71453125 28.65484375 -7.00328125 29.43859375 -7.30078125 30.24609375 C-8.42578125 32.87109375 -8.42578125 32.87109375 -10.42578125 34.87109375 C-15.25798327 34.77816679 -18.55774012 33.79638102 -22.13671875 30.4375 C-26.43566772 25.21362565 -26.97722598 18.99073199 -26.77734375 12.421875 C-26.09062441 7.43934466 -23.4692102 4.81272476 -19.86328125 1.55859375 C-14.33905909 -2.26586774 -6.10929164 -2.8431325 0 0 Z " fill="#F7CF05" transform="translate(264.42578125,53.12890625)"/>
<path d="M0 0 C3.46679688 0.04882812 3.46679688 0.04882812 6.93359375 0.09765625 C6.93359375 4.71765625 6.93359375 9.33765625 6.93359375 14.09765625 C13.20359375 14.09765625 19.47359375 14.09765625 25.93359375 14.09765625 C25.93359375 17.06765625 25.93359375 20.03765625 25.93359375 23.09765625 C19.66359375 23.09765625 13.39359375 23.09765625 6.93359375 23.09765625 C7.02072375 27.61940256 7.12765084 32.13921254 7.24609375 36.66015625 C7.26865234 37.93697266 7.29121094 39.21378906 7.31445312 40.52929688 C7.52186866 49.73568573 7.52186866 49.73568573 10.93359375 58.09765625 C15.97967207 60.87299933 22.26649242 60.71447146 27.93359375 61.09765625 C27.93359375 63.73765625 27.93359375 66.37765625 27.93359375 69.09765625 C24.89096108 69.20610652 21.85223171 69.28517688 18.80859375 69.34765625 C17.95265625 69.38117188 17.09671875 69.4146875 16.21484375 69.44921875 C10.57782881 69.53594206 7.39282708 68.88834919 2.93359375 65.09765625 C-0.89944243 60.74664221 -2.18147355 58.40119422 -2.28759766 52.65405273 C-2.31077057 51.51624863 -2.33394348 50.37844452 -2.3578186 49.2061615 C-2.37766815 47.9728157 -2.3975177 46.73946991 -2.41796875 45.46875 C-2.44112152 44.20877701 -2.46427429 42.94880402 -2.48812866 41.65065002 C-2.53581218 38.9833367 -2.58151778 36.31607407 -2.62402344 33.64868164 C-2.67891652 30.22290541 -2.74273479 26.79736364 -2.80919838 23.3717947 C-2.871183 20.11252993 -2.92548359 16.85313924 -2.98046875 13.59375 C-3.00436676 12.35837997 -3.02826477 11.12300995 -3.05288696 9.85020447 C-3.06975555 8.71555252 -3.08662415 7.58090057 -3.10400391 6.41186523 C-3.12097321 5.40751938 -3.1379425 4.40317352 -3.15542603 3.36839294 C-3.04031019 0.4319919 -2.93279527 0.13860091 0 0 Z " fill="#0F73BA" transform="translate(200.06640625,28.90234375)"/>
<path d="M0 0 C2.75663469 2.60348831 4.86441414 4.73925796 6.625 8.125 C9.17255808 11.2088861 9.41479667 11.42274465 13.109375 11.8046875 C14.65552422 11.8575473 16.20295596 11.88013116 17.75 11.875 C18.54277344 11.895625 19.33554688 11.91625 20.15234375 11.9375 C22.10110815 11.98445818 24.05067457 11.99574383 26 12 C22.2890625 18.6796875 22.2890625 18.6796875 19.6875 21.5625 C17.73913897 23.86584514 17.73913897 23.86584514 18.0625 26.625 C18.371875 27.73875 18.68125 28.8525 19 30 C19.2475 30.93328125 19.495 31.8665625 19.75 32.828125 C20.47815905 35.55872144 21.23067849 38.28076297 22 41 C21.26394531 40.79503906 20.52789062 40.59007812 19.76953125 40.37890625 C18.79371094 40.10949219 17.81789062 39.84007812 16.8125 39.5625 C15.84957031 39.29566406 14.88664062 39.02882812 13.89453125 38.75390625 C12.93933594 38.50511719 11.98414062 38.25632813 11 38 C10.17242187 37.7215625 9.34484375 37.443125 8.4921875 37.15625 C4.76371841 36.92249018 3.17545052 38.6526077 0.3125 40.9375 C-4.83704974 45 -4.83704974 45 -7 45 C-6.94457031 43.9378125 -6.88914062 42.875625 -6.83203125 41.78125 C-6.53523391 33.31780095 -6.53523391 33.31780095 -10.515625 26.2265625 C-13.50999197 24.09599975 -13.50999197 24.09599975 -16.62890625 22.3828125 C-17.41136719 21.92648438 -18.19382813 21.47015625 -19 21 C-19 20.34 -19 19.68 -19 19 C-16.87607494 18.3299166 -14.75082476 17.66403203 -12.625 17 C-11.44164062 16.62875 -10.25828125 16.2575 -9.0390625 15.875 C-6 15 -6 15 -4 15 C-3.896875 14.195625 -3.79375 13.39125 -3.6875 12.5625 C-2.84899627 8.21752614 -1.47178341 4.16542473 0 0 Z " fill="#2AACE2" transform="translate(54,35)"/>
<path d="M0 0 C0 3.63 0 7.26 0 11 C-1.21236328 11.05607422 -1.21236328 11.05607422 -2.44921875 11.11328125 C-3.51785156 11.17902344 -4.58648437 11.24476562 -5.6875 11.3125 C-6.74324219 11.37050781 -7.79898437 11.42851563 -8.88671875 11.48828125 C-13.49249222 12.24531553 -16.11660109 14.04298451 -19.25 17.4375 C-22.26909361 21.85831565 -22.16455678 25.87883649 -22.31640625 31.171875 C-22.33718735 31.8542926 -22.35796844 32.53671021 -22.37937927 33.23980713 C-22.44452052 35.40977356 -22.50359404 37.57985624 -22.5625 39.75 C-22.60571897 41.22527221 -22.64933432 42.70053287 -22.69335938 44.17578125 C-22.80016518 47.78373166 -22.90153153 51.39181133 -23 55 C-26.3 55 -29.6 55 -33 55 C-33.09991855 50.62587332 -33.17195484 46.25237563 -33.21972656 41.87744141 C-33.23966981 40.39359952 -33.2668349 38.90983445 -33.30175781 37.42626953 C-33.53556369 27.2282072 -32.76485275 19.13531559 -27.3125 10.25 C-19.19390745 2.35082887 -11.21347228 -0.40048115 0 0 Z " fill="#1C79BD" transform="translate(319,43)"/>
<path d="M0 0 C8.15767708 6.12743061 14.22040697 14.10975061 16.16796875 24.26953125 C17.21737773 35.02597334 15.2882317 44.27459651 8.9609375 53.1015625 C2.28858553 61.16943906 -5.41299013 66.56974811 -15.83203125 68.26953125 C-26.38808681 69.19205186 -35.02738246 67.31667845 -43.64453125 61.01953125 C-50.89554215 54.92091315 -56.93026686 46.98097138 -58.05957031 37.32373047 C-58.94002807 25.299114 -57.5701113 16.32647765 -49.51953125 6.95703125 C-36.07823776 -7.00965482 -17.22582624 -10.52557382 0 0 Z M-48.20703125 8.51953125 C-54.65319535 16.36192928 -56.54426414 23.69148161 -56.21484375 33.8046875 C-55.15650997 43.38368815 -51.09652322 51.55186023 -43.9140625 57.98828125 C-34.47624988 65.43630359 -25.81808212 66.40095957 -14.12158203 65.57128906 C-6.36225951 64.54862723 0.49766357 59.97135697 5.703125 54.26953125 C12.8302946 44.53856903 14.61894547 34.05370686 13.16796875 22.26953125 C10.42049337 13.16535083 4.72604427 5.66377584 -3.390625 0.70703125 C-19.15893008 -7.54028433 -35.968942 -4.3327372 -48.20703125 8.51953125 Z " fill="#247FC0" transform="translate(79.83203125,27.73046875)"/>
<path d="M0 0 C3.68058148 0.70106314 4.45847153 2.52102336 6.625 5.5 C7.511875 6.180625 8.39875 6.86125 9.3125 7.5625 C11.72894436 9.58708852 12.29640682 10.43313028 12.625 13.5 C13.553125 13.29375 14.48125 13.0875 15.4375 12.875 C20.62310252 12.09609263 25.56534346 13.39291421 30.625 14.5 C30.625 15.49 30.625 16.48 30.625 17.5 C12.83765007 19.73385157 12.83765007 19.73385157 7.64892578 16.12597656 C4.13774434 12.40531234 1.80119155 8.0987444 -0.375 3.5 C-0.61089844 4.74136719 -0.84679687 5.98273437 -1.08984375 7.26171875 C-4.03135668 19.88775624 -4.03135668 19.88775624 -8.32763672 22.84326172 C-13.15803098 24.93336665 -18.1803242 25.8174034 -23.375 26.5 C-21.28917429 28.80025639 -19.62299888 30.38276417 -16.796875 31.71875 C-13.44977688 33.3237912 -11.64091385 34.51697109 -9.375 37.5 C-8.06577103 44.03633264 -8.76841749 50.9069147 -9.375 57.5 C-8.37339844 56.69433594 -7.37179688 55.88867188 -6.33984375 55.05859375 C-4.99820695 54.01718337 -3.65571332 52.97687619 -2.3125 51.9375 C-1.32733398 51.13795898 -1.32733398 51.13795898 -0.32226562 50.32226562 C3.11840731 47.69515083 4.78292105 46.49085691 9.22265625 46.5390625 C10.90681641 47.01472656 10.90681641 47.01472656 12.625 47.5 C13.70523438 47.79777344 14.78546875 48.09554687 15.8984375 48.40234375 C16.92195313 48.74394531 17.94546875 49.08554688 19 49.4375 C20.03898437 49.77652344 21.07796875 50.11554688 22.1484375 50.46484375 C24.625 51.5 24.625 51.5 25.625 53.5 C20.2619492 52.90410547 15.4068926 51.59525734 10.2734375 49.92578125 C6.95857805 49.39286137 5.56882692 49.91982373 2.625 51.5 C0.8116007 52.81835453 -0.9595109 54.19652901 -2.6875 55.625 C-3.57050781 56.34945312 -4.45351563 57.07390625 -5.36328125 57.8203125 C-6.35908203 58.65175781 -6.35908203 58.65175781 -7.375 59.5 C-11.25 57.625 -11.25 57.625 -12.375 56.5 C-12.3440625 54.829375 -12.3440625 54.829375 -12.3125 53.125 C-12.05017806 49.40193585 -12.05017806 49.40193585 -14.375 46.5 C-14 42.8125 -14 42.8125 -13.375 39.5 C-14.11105469 39.42265625 -14.84710938 39.3453125 -15.60546875 39.265625 C-19.06314938 38.30976407 -20.33508959 36.92581147 -22.6875 34.25 C-23.73357422 33.09757812 -23.73357422 33.09757812 -24.80078125 31.921875 C-26.59100572 29.16768351 -26.71170385 27.71866049 -26.375 24.5 C-20.48785501 21.92437407 -14.81367624 20.3435044 -8.375 20.5 C-8.10945313 19.30761719 -7.84390625 18.11523438 -7.5703125 16.88671875 C-7.21386783 15.32023825 -6.85707903 13.75383602 -6.5 12.1875 C-6.32597656 11.40181641 -6.15195312 10.61613281 -5.97265625 9.80664062 C-5.71162109 8.6706543 -5.71162109 8.6706543 -5.4453125 7.51171875 C-5.28820801 6.81522217 -5.13110352 6.11872559 -4.96923828 5.40112305 C-4.00480127 2.31563785 -3.25330064 0.6849054 0 0 Z " fill="#F9BEA9" transform="translate(54.375,27.5)"/>
<path d="M0 0 C0.495 0.99 0.495 0.99 1 2 C1.99 2.33 2.98 2.66 4 3 C7.34737511 9.73422399 7.54739953 17.31924291 7.5 24.6875 C7.49355469 25.73969727 7.48710938 26.79189453 7.48046875 27.87597656 C7.10850634 43.82631198 1.09707938 56.64282698 -9.8125 68.3125 C-22.06970131 79.76205627 -35.80750455 84.41020959 -52.3125 84.5 C-53.31434326 84.50636475 -54.31618652 84.51272949 -55.34838867 84.51928711 C-61.67808925 84.41093947 -68.29185634 83.97951389 -74 81 C-75.2746582 78.89257812 -75.2746582 78.89257812 -76 77 C-75.40832031 77.13277344 -74.81664062 77.26554687 -74.20703125 77.40234375 C-73.41683594 77.57894531 -72.62664062 77.75554687 -71.8125 77.9375 C-71.03519531 78.11152344 -70.25789063 78.28554687 -69.45703125 78.46484375 C-68.64621094 78.64144531 -67.83539063 78.81804687 -67 79 C-66.26265625 79.18175781 -65.5253125 79.36351563 -64.765625 79.55078125 C-47.97192892 82.27857087 -32.29459333 79.23192486 -18 70 C-16.65854035 68.67484281 -15.32295767 67.34362888 -14 66 C-13.34 66 -12.68 66 -12 66 C-11.73832031 65.42121094 -11.47664063 64.84242187 -11.20703125 64.24609375 C-9.93044522 61.87056959 -8.45016775 60.09875255 -6.6875 58.0625 C1.29042935 48.03595831 3.19041019 36.68483528 3.25 24.3125 C3.270625 23.26126953 3.29125 22.21003906 3.3125 21.12695312 C3.34195974 15.20922788 2.85673052 10.34365316 0.64746094 4.82885742 C0 3 0 3 0 0 Z " fill="#5199CB" transform="translate(111,34)"/>
<path d="M0 0 C0.66 0.33 1.32 0.66 2 1 C1.36191406 1.59167969 0.72382813 2.18335938 0.06640625 2.79296875 C-0.75988281 3.58316406 -1.58617188 4.37335937 -2.4375 5.1875 C-3.26121094 5.96480469 -4.08492187 6.74210937 -4.93359375 7.54296875 C-7.22191468 10.26386453 -7.43866879 11.57077663 -8 15 C-9.10154755 17.31076517 -10.22885395 19.56013517 -11.4375 21.8125 C-18.25831001 34.64245786 -19.39356575 49.95851341 -15.4375 64 C-9.98219039 78.87811713 -1.5103937 89.18218504 12.59375 96.39453125 C15 98 15 98 15.84375 100.19921875 C15.8953125 100.79347656 15.946875 101.38773437 16 102 C4.98042253 100.040964 -4.69753278 90.98922993 -11.0625 82.12890625 C-21.09345244 66.76901033 -23.53315476 50.74663767 -20.62060547 32.64160156 C-17.70921772 19.56919733 -9.77621401 8.84019352 0 0 Z " fill="#4491C8" transform="translate(21,12)"/>
<path d="M0 0 C3.63 0 7.26 0 11 0 C11.33 14.85 11.66 29.7 12 45 C11.34 45 10.68 45 10 45 C10 30.81 10 16.62 10 2 C7.36 2 4.72 2 2 2 C2 24.11 2 46.22 2 69 C4.64 69 7.28 69 10 69 C10 66.03 10 63.06 10 60 C10.99 59.505 10.99 59.505 12 59 C11.67 62.63 11.34 66.26 11 70 C7.37 70 3.74 70 0 70 C0 46.9 0 23.8 0 0 Z " fill="#3886C4" transform="translate(469,28)"/>
<path d="M0 0 C4.71774194 4.30147059 4.71774194 4.30147059 5.9296875 7.30078125 C7.30629582 10.45090321 8.20294606 11.92573217 11 14 C17.84377894 15.48008586 25.03428585 15.19395607 32 15 C32 15.33 32 15.66 32 16 C12.9705304 18.6781671 12.9705304 18.6781671 8.17285156 15.96777344 C5.23204036 13.16091223 3.49366856 9.73417139 2 6 C-0.108024 9.16203599 -0.30800792 10.77194595 -0.875 14.4375 C-1.6171875 17.390625 -1.6171875 17.390625 -3 20 C-7.65882303 22.71874658 -12.61408768 24 -18 24 C-15.21932343 26.94920242 -12.89902215 29.05939834 -9.34375 31 C-6.94650366 32.68711449 -6.12265766 33.48646693 -5.43383789 36.37036133 C-5.31070546 39.21367086 -5.3889057 41.97203937 -5.5625 44.8125 C-5.60987305 46.28106445 -5.60987305 46.28106445 -5.65820312 47.77929688 C-5.7404953 50.18928203 -5.8553499 52.59308593 -6 55 C-6.66 55 -7.32 55 -8 55 C-7.95697754 54.44650879 -7.91395508 53.89301758 -7.86962891 53.32275391 C-6.92015026 42.70036759 -6.92015026 42.70036759 -10.42138672 33.07128906 C-14.16436995 29.61766364 -18.44834911 27.23177721 -23 25 C-22 23 -22 23 -19.19921875 21.9296875 C-18.04035156 21.58164062 -16.88148437 21.23359375 -15.6875 20.875 C-14.53636719 20.52179687 -13.38523437 20.16859375 -12.19921875 19.8046875 C-9 19 -9 19 -5 19 C-4.72285156 17.87980469 -4.44570313 16.75960937 -4.16015625 15.60546875 C-3.79433333 14.13279698 -3.42844447 12.66014158 -3.0625 11.1875 C-2.88009766 10.44951172 -2.69769531 9.71152344 -2.50976562 8.95117188 C-1.7577385 5.92939016 -0.98514427 2.95543282 0 0 Z " fill="#ECEAE5" transform="translate(53,30)"/>
<path d="M0 0 C1.6396875 0.2475 1.6396875 0.2475 3.3125 0.5 C6.60551581 0.94651062 7.95648465 0.78905953 11 0 C11.66 0.66 12.32 1.32 13 2 C12.71325582 4.00720923 12.38133299 6.0085944 12 8 C12.33 8.33 12.66 8.66 13 9 C13.125 11.5 13.125 11.5 13 14 C12 15 12 15 9.625 15.0625 C8.75875 15.041875 7.8925 15.02125 7 15 C6.01 15 5.02 15 4 15 C2.32900023 14.68911632 0.66128463 14.35919668 -1 14 C-2.29001633 9.48494285 -2.10454211 5.54089534 -1 1 C-0.67 0.67 -0.34 0.34 0 0 Z " fill="#345B7B" transform="translate(100,52)"/>
<path d="M0 0 C1.6396875 0.2475 1.6396875 0.2475 3.3125 0.5 C6.60551581 0.94651062 7.95648465 0.78905953 11 0 C11.66 0.66 12.32 1.32 13 2 C12.6730244 4.61580479 12.17960932 6.64078137 11 9 C11.66 9 12.32 9 13 9 C13 10.65 13 12.3 13 14 C7.95092391 14.89761353 4.01613312 15.08456932 -1 14 C-2.29001633 9.48494285 -2.10454211 5.54089534 -1 1 C-0.67 0.67 -0.34 0.34 0 0 Z " fill="#375E7B" transform="translate(7,52)"/>
<path d="M0 0 C0.33 0.66 0.66 1.32 1 2 C1.99 2.33 2.98 2.66 4 3 C7.34766387 9.73480491 7.54622848 17.31879839 7.5 24.6875 C7.49500488 25.73752197 7.49000977 26.78754395 7.48486328 27.86938477 C7.20361319 40.49169502 3.92456508 50.95132469 -4 61 C-5.32 60.67 -6.64 60.34 -8 60 C-7.62488281 59.52433594 -7.24976562 59.04867187 -6.86328125 58.55859375 C1.14347531 47.60728692 3.43699144 36.92692052 3.5 23.625 C3.50628418 22.61493896 3.51256836 21.60487793 3.51904297 20.56420898 C3.42270532 14.88917326 2.7228645 10.14565061 0.63867188 4.85302734 C0 3 0 3 0 0 Z " fill="#5299CC" transform="translate(111,34)"/>
<path d="M0 0 C0.66 0 1.32 0 2 0 C1.39085841 3.76314135 0.3120315 6.83503926 -1.375 10.25 C-1.79523438 11.12140625 -2.21546875 11.9928125 -2.6484375 12.890625 C-4 15 -4 15 -7 16 C-6.50886719 16.50015625 -6.01773438 17.0003125 -5.51171875 17.515625 C-3.45655282 20.893107 -3.67160001 23.92763623 -3.8125 27.75 C-3.82603516 28.44738281 -3.83957031 29.14476563 -3.85351562 29.86328125 C-3.8887055 31.57585541 -3.94250845 33.28802941 -4 35 C-4.66 35 -5.32 35 -6 35 C-6.81627446 32.60539412 -7.62811645 30.20943474 -8.4375 27.8125 C-8.78264648 26.80219727 -8.78264648 26.80219727 -9.13476562 25.77148438 C-9.77972097 23.85531271 -10.39069413 21.92780383 -11 20 C-11.29390625 19.11699219 -11.5878125 18.23398437 -11.890625 17.32421875 C-12.05295551 13.8746954 -10.53834058 12.5575188 -8.3125 10 C-7.60738281 9.175 -6.90226562 8.35 -6.17578125 7.5 C-5.45777344 6.675 -4.73976563 5.85 -4 5 C-3.29230469 4.071875 -2.58460937 3.14375 -1.85546875 2.1875 C-1.24316406 1.465625 -0.63085938 0.74375 0 0 Z " fill="#FBF8B3" transform="translate(85,45)"/>
<path d="M0 0 C2.25 -0.3125 2.25 -0.3125 5 0 C7 2.25 7 2.25 9 5 C9.886875 5.680625 10.77375 6.36125 11.6875 7.0625 C14.10394436 9.08708852 14.67140682 9.93313028 15 13 C15.928125 12.79375 16.85625 12.5875 17.8125 12.375 C22.99810252 11.59609263 27.94034346 12.89291421 33 14 C33 14.99 33 15.98 33 17 C15.27776638 19.22567383 15.27776638 19.22567383 10.02392578 15.65820312 C6.49863255 12.00420373 2 6.23273412 2 1 C1.34 0.67 0.68 0.34 0 0 Z " fill="#F6B3B1" transform="translate(52,28)"/>
<path d="M0 0 C10.00310702 3.63909166 16.50111215 10.69739695 21.03125 20.15234375 C23.45101189 26.34738228 23.30018321 32.42932314 23 39 C22.01 39 21.02 39 20 39 C19.99613281 37.69289063 19.99613281 37.69289063 19.9921875 36.359375 C19.64293831 25.60249983 17.04460466 17.01521513 9.625 9 C6.11810917 5.79123412 2.33516394 3.90138769 -2 2 C-1.34 1.34 -0.68 0.68 0 0 Z " fill="#2E85C3" transform="translate(73,25)"/>
<path d="M0 0 C0.66 0 1.32 0 2 0 C2.66 0.66 3.32 1.32 4 2 C4.93779297 2.45439453 4.93779297 2.45439453 5.89453125 2.91796875 C8.22293098 4.1145675 9.78857801 5.51708319 11.6875 7.3125 C15.25777486 10.54722271 18.86896654 12.71177667 23.21484375 14.76171875 C25 16 25 16 25.75390625 18.14453125 C25.87572266 19.06298828 25.87572266 19.06298828 26 20 C16.21614171 18.26064742 7.13889971 10.62536284 1 3 C0.67 2.01 0.34 1.02 0 0 Z " fill="#549ACC" transform="translate(11,94)"/>
<path d="M0 0 C2.875 0.6875 2.875 0.6875 3.875 1.6875 C4.33375252 6.96315392 4.33375252 6.96315392 2.6875 9.5625 C0.25741919 11.07082602 -1.31515752 11.04773622 -4.125 10.6875 C-6.125 8.6875 -6.125 8.6875 -6.4375 5.1875 C-6.334375 4.0325 -6.23125 2.8775 -6.125 1.6875 C-3.125 -0.3125 -3.125 -0.3125 0 0 Z " fill="#2D85C3" transform="translate(68.125,7.3125)"/>
<path d="M0 0 C0.33 0 0.66 0 1 0 C1.8184221 11.94290031 0.99675917 20.78752357 -7.00390625 30.41015625 C-10.28233139 33.83788348 -13.64481053 37.00905624 -18 39 C-18.99 39 -19.98 39 -21 39 C-21 38.34 -21 37.68 -21 37 C-19.2421875 35.73828125 -19.2421875 35.73828125 -16.875 34.3125 C-7.81244847 28.37496624 -3.98887491 21.42490645 -1 11 C-0.40587828 7.32605614 -0.08199021 3.71937401 0 0 Z " fill="#207CBF" transform="translate(94,53)"/>
<path d="M0 0 C2.33746522 0.30300475 4.67085177 0.63858045 7 1 C8.33542939 0.67516582 9.66961551 0.3449145 11 0 C11.66 0.66 12.32 1.32 13 2 C12.625 4.625 12.625 4.625 12 7 C11.34 7 10.68 7 10 7 C10 6.01 10 5.02 10 4 C7.36 4 4.72 4 2 4 C2 7.63 2 11.26 2 15 C0.68 14.34 -0.64 13.68 -2 13 C-1.814375 12.113125 -1.62875 11.22625 -1.4375 10.3125 C-0.82714779 7.08178602 -0.82714779 7.08178602 -1.5625 4.25 C-1.706875 3.5075 -1.85125 2.765 -2 2 C-1.34 1.34 -0.68 0.68 0 0 Z " fill="#345C7B" transform="translate(7,52)"/>
<path d="M0 0 C2.33746522 0.30300475 4.67085177 0.63858045 7 1 C8.33542939 0.67516582 9.66961551 0.3449145 11 0 C11.66 0.66 12.32 1.32 13 2 C12.625 4.625 12.625 4.625 12 7 C11.34 7 10.68 7 10 7 C10 6.01 10 5.02 10 4 C7.36 4 4.72 4 2 4 C2 7.63 2 11.26 2 15 C0.68 14.34 -0.64 13.68 -2 13 C-1.814375 12.113125 -1.62875 11.22625 -1.4375 10.3125 C-0.82714779 7.08178602 -0.82714779 7.08178602 -1.5625 4.25 C-1.706875 3.5075 -1.85125 2.765 -2 2 C-1.34 1.34 -0.68 0.68 0 0 Z " fill="#365E7C" transform="translate(100,52)"/>
<path d="M0 0 C6.6 0 13.2 0 20 0 C13.30464602 10.73783186 13.30464602 10.73783186 11.20703125 12.54296875 C9.72279919 13.98557378 9.72279919 13.98557378 10.21484375 16.32421875 C10.60349609 17.64873047 10.60349609 17.64873047 11 19 C11.24878906 19.95519531 11.49757813 20.91039063 11.75390625 21.89453125 C12.15416016 23.33892578 12.15416016 23.33892578 12.5625 24.8125 C12.83191406 25.78832031 13.10132812 26.76414062 13.37890625 27.76953125 C13.58386719 28.50558594 13.78882812 29.24164063 14 30 C10.52970421 27.68646947 10.13848822 26.51620446 8.75 22.6875 C8.39421875 21.74261719 8.0384375 20.79773438 7.671875 19.82421875 C6.63774036 15.47724582 7.32246858 13.11297128 9.62890625 9.32421875 C12.31445312 5.66210938 12.31445312 5.66210938 15 2 C10.05 1.67 5.1 1.34 0 1 C0 0.67 0 0.34 0 0 Z " fill="#F4F9ED" transform="translate(64,46)"/>
<path d="M0 0 C3 0.25 3 0.25 5 2.25 C5.25 5.25 5.25 5.25 5 8.25 C3 10.25 3 10.25 0 10.5 C-3 10.25 -3 10.25 -5 8.25 C-5.25 5.25 -5.25 5.25 -5 2.25 C-3 0.25 -3 0.25 0 0 Z " fill="#3388C5" transform="translate(40,96.75)"/>
<path d="M0 0 C3 0.25 3 0.25 5 2.25 C4.42307692 8.82692308 4.42307692 8.82692308 3 10.25 C0.0625 10.4375 0.0625 10.4375 -3 10.25 C-5 8.25 -5 8.25 -5.25 5.25 C-4.90584825 1.120179 -4.129821 0.34415175 0 0 Z " fill="#1F7DBF" transform="translate(80,11.75)"/>
<path d="M0 0 C0.59167969 0.13277344 1.18335938 0.26554687 1.79296875 0.40234375 C2.58316406 0.57894531 3.37335937 0.75554687 4.1875 0.9375 C4.96480469 1.11152344 5.74210937 1.28554687 6.54296875 1.46484375 C7.35378906 1.64144531 8.16460937 1.81804687 9 2 C9.76183594 2.16951172 10.52367187 2.33902344 11.30859375 2.51367188 C14.07432107 3.01342957 16.71223668 3.20662378 19.51953125 3.31640625 C20.54111328 3.35830078 21.56269531 3.40019531 22.61523438 3.44335938 C24.19788086 3.50233398 24.19788086 3.50233398 25.8125 3.5625 C27.42415039 3.62727539 27.42415039 3.62727539 29.06835938 3.69335938 C31.71212082 3.79910983 34.3559711 3.90120233 37 4 C34.30098067 6.69901933 32.87912941 6.25776901 29.109375 6.265625 C27.92472656 6.26820312 26.74007812 6.27078125 25.51953125 6.2734375 C24.27558594 6.26570313 23.03164063 6.25796875 21.75 6.25 C20.52152344 6.25773437 19.29304688 6.26546875 18.02734375 6.2734375 C16.83753906 6.27085938 15.64773437 6.26828125 14.421875 6.265625 C13.33487305 6.26336914 12.24787109 6.26111328 11.12792969 6.25878906 C7.77696493 5.98154721 5.10119647 5.28943891 2 4 C0.625 1.875 0.625 1.875 0 0 Z " fill="#3489C4" transform="translate(35,111)"/>
<path d="M0 0 C3.46941546 0.45822468 6.67395049 0.89131683 10 2 C11.42220944 2.09176662 12.84827218 2.13066478 14.2734375 2.1328125 C15.5109375 2.13474609 15.5109375 2.13474609 16.7734375 2.13671875 C17.63195312 2.13285156 18.49046875 2.12898438 19.375 2.125 C20.65117188 2.13080078 20.65117188 2.13080078 21.953125 2.13671875 C26.09619909 2.13026536 29.96064436 2.04724035 34 1 C34.495 1.99 34.495 1.99 35 3 C24.20588309 7.01197266 14.9531025 7.28599663 4.1796875 3.0703125 C2 2 2 2 0 0 Z " fill="#2F84C3" transform="translate(39,90)"/>
<path d="M0 0 C2.46800047 1.15173355 4.04783565 2.04783565 6 4 C6.25 6.5 6.25 6.5 6 9 C4 11 4 11 1.0625 11.25 C-2 11 -2 11 -5 9 C-4.42647107 5.12867972 -2.51295648 2.91827204 0 0 Z " fill="#2983C2" transform="translate(28,89)"/>
<path d="M0 0 C1.14339844 0.36222656 2.28679687 0.72445312 3.46484375 1.09765625 C4.75068359 1.51337891 4.75068359 1.51337891 6.0625 1.9375 C6.0625 2.2675 6.0625 2.5975 6.0625 2.9375 C3.62402549 2.82352456 1.18736826 2.69679026 -1.25 2.5625 C-2.28543945 2.51609375 -2.28543945 2.51609375 -3.34179688 2.46875 C-7.00740789 2.25625081 -8.81650792 2.01816139 -11.9375 -0.0625 C-12.411875 0.515 -12.88625 1.0925 -13.375 1.6875 C-16.7913623 4.68723275 -20.59812811 6.57202197 -24.9375 7.9375 C-25.5975 7.6075 -26.2575 7.2775 -26.9375 6.9375 C-24.93461367 5.22375215 -22.91474083 3.54387886 -20.875 1.875 C-20.03291992 1.14700195 -20.03291992 1.14700195 -19.17382812 0.40429688 C-12.73727493 -4.78172598 -7.43630817 -2.3765521 0 0 Z " fill="#C9B8D8" transform="translate(73.9375,79.0625)"/>
<path d="M0 0 C0.99 0.33 1.98 0.66 3 1 C0.18559506 17.67369879 0.18559506 17.67369879 -4.90429688 21.390625 C-10.57706908 23.95942751 -16.79540831 25 -23 25 C-22.505 23.515 -22.505 23.515 -22 22 C-19.453125 21.05078125 -19.453125 21.05078125 -16.25 20.3125 C-15.20328125 20.06113281 -14.1565625 19.80976562 -13.078125 19.55078125 C-10.29722504 19.05318367 -7.81457462 18.89054432 -5 19 C-4.72285156 17.79601562 -4.44570313 16.59203125 -4.16015625 15.3515625 C-3.79440321 13.77601093 -3.42851055 12.20049177 -3.0625 10.625 C-2.88009766 9.8309375 -2.69769531 9.036875 -2.50976562 8.21875 C-2.33251953 7.45820312 -2.15527344 6.69765625 -1.97265625 5.9140625 C-1.81031494 5.2123291 -1.64797363 4.5105957 -1.48071289 3.78759766 C-1 2 -1 2 0 0 Z " fill="#52BB5E" transform="translate(51,29)"/>
<path d="M0 0 C4.71774194 4.30147059 4.71774194 4.30147059 5.9296875 7.30078125 C7.30629582 10.45090321 8.20294606 11.92573217 11 14 C17.84377894 15.48008586 25.03428585 15.19395607 32 15 C32 15.33 32 15.66 32 16 C12.9705304 18.6781671 12.9705304 18.6781671 8.17285156 15.96777344 C5.23204036 13.16091223 3.49366856 9.73417139 2 6 C0.0549 8.91765 -0.45276317 10.62537285 -1 14 C-3 11 -3 11 -2.5390625 8.30078125 C-2.23742188 7.31464844 -1.93578125 6.32851563 -1.625 5.3125 C-1.32851563 4.31863281 -1.03203125 3.32476562 -0.7265625 2.30078125 C-0.48679688 1.54152344 -0.24703125 0.78226563 0 0 Z " fill="#EADFDF" transform="translate(53,30)"/>
<path d="M0 0 C2.64 0 5.28 0 8 0 C8.19412181 1.47831221 8.38012131 2.95769316 8.5625 4.4375 C8.66691406 5.26121094 8.77132812 6.08492187 8.87890625 6.93359375 C8.91886719 7.61550781 8.95882812 8.29742187 9 9 C8 10 8 10 4.4375 10.0625 C3.303125 10.041875 2.16875 10.02125 1 10 C0.67 6.7 0.34 3.4 0 0 Z " fill="#1376BC" transform="translate(50,7)"/>
<path d="M0 0 C0.33 0.99 0.66 1.98 1 3 C-0.90625 5.3828125 -0.90625 5.3828125 -3.5 8.125 C-6.80734648 11.8727167 -6.80734648 11.8727167 -8.484375 16.44140625 C-7.95139729 21.54910934 -5.85244609 26.24807308 -4 31 C-4 32.32 -4 33.64 -4 35 C-4.66 35 -5.32 35 -6 35 C-6.81627446 32.60539412 -7.62811645 30.20943474 -8.4375 27.8125 C-8.78264648 26.80219727 -8.78264648 26.80219727 -9.13476562 25.77148438 C-9.77972097 23.85531271 -10.39069413 21.92780383 -11 20 C-11.29390625 19.11699219 -11.5878125 18.23398437 -11.890625 17.32421875 C-12.05295551 13.8746954 -10.53834058 12.5575188 -8.3125 10 C-7.60738281 9.175 -6.90226562 8.35 -6.17578125 7.5 C-5.45777344 6.675 -4.73976563 5.85 -4 5 C-2.65964507 3.33897495 -1.32420009 1.6739324 0 0 Z " fill="#F7F039" transform="translate(85,45)"/>
<path d="M0 0 C0.33 0.66 0.66 1.32 1 2 C1.99 2.33 2.98 2.66 4 3 C7.36550686 8.8584749 7.28432207 15.87466356 7.3125 22.4375 C7.31789795 23.2308374 7.3232959 24.0241748 7.32885742 24.84155273 C7.28101872 28.72563927 7.1990828 30.7013758 5 34 C4.96132812 32.40285156 4.96132812 32.40285156 4.921875 30.7734375 C4.60943263 21.92465992 3.59707382 14.21593463 0.83984375 5.7578125 C0 3 0 3 0 0 Z " fill="#1D7CBE" transform="translate(111,34)"/>
<path d="M0 0 C2.11057901 5.46892171 -1.13981325 10.81402483 -3 16 C-10.425 17.485 -10.425 17.485 -18 19 C-13.98671022 14.98671022 -10.65363295 12.80766185 -5 12 C-4.9175 11.319375 -4.835 10.63875 -4.75 9.9375 C-3.77667472 6.1253093 -2.04192545 3.35929671 0 0 Z " fill="#C6E8C9" transform="translate(49,32)"/>
<path d="M0 0 C0.99 2.97 1.98 5.94 3 9 C1.68 9 0.36 9 -1 9 C-1 8.34 -1 7.68 -1 7 C-1.66 7 -2.32 7 -3 7 C-2.67 8.32 -2.34 9.64 -2 11 C-2.99 11 -3.98 11 -5 11 C-5.99 7.7 -6.98 4.4 -8 1 C-5.07175348 0.02391783 -3.04386724 -0.08226668 0 0 Z " fill="#2580C1" transform="translate(46,9)"/>
<path d="M0 0 C1.62035156 0.44666016 1.62035156 0.44666016 3.2734375 0.90234375 C4.29695313 1.24394531 5.32046875 1.58554688 6.375 1.9375 C7.93347656 2.44603516 7.93347656 2.44603516 9.5234375 2.96484375 C12 4 12 4 13 6 C7.6369492 5.40410547 2.7818926 4.09525734 -2.3515625 2.42578125 C-5.66500398 1.89308933 -7.05967224 2.41674659 -10 4 C-11.77023629 5.32170566 -13.49936788 6.69992024 -15.1875 8.125 C-19.78647687 12 -19.78647687 12 -22 12 C-22 11.34 -22 10.68 -22 10 C-19.84567606 7.86811261 -17.36010703 6.12774278 -14.9375 4.3125 C-14.28072266 3.78849609 -13.62394531 3.26449219 -12.94726562 2.72460938 C-8.32050884 -0.74431862 -5.81831238 -1.62992907 0 0 Z " fill="#703F98" transform="translate(67,75)"/>
<path d="M0 0 C0.66 0.33 1.32 0.66 2 1 C1.36191406 1.59167969 0.72382813 2.18335938 0.06640625 2.79296875 C-0.75988281 3.58316406 -1.58617187 4.37335937 -2.4375 5.1875 C-3.26121094 5.96480469 -4.08492187 6.74210937 -4.93359375 7.54296875 C-7.19353541 10.23012055 -7.49090003 11.60600017 -8 15 C-9.19140625 17.45703125 -9.19140625 17.45703125 -10.5625 19.8125 C-11.01753906 20.60269531 -11.47257813 21.39289062 -11.94140625 22.20703125 C-12.29074219 22.79871094 -12.64007813 23.39039062 -13 24 C-14.32 24 -15.64 24 -17 24 C-14.2006356 14.32300936 -7.32240119 6.70457359 0 0 Z " fill="#75ADD3" transform="translate(21,12)"/>
<path d="M0 0 C2.5 0.25 2.5 0.25 4.5 2.25 C4.75 4.75 4.75 4.75 4.5 7.25 C2.5 9.25 2.5 9.25 0 9.5 C-2.5 9.25 -2.5 9.25 -4.5 7.25 C-4.75 4.75 -4.75 4.75 -4.5 2.25 C-2.5 0.25 -2.5 0.25 0 0 Z " fill="#1671B1" transform="translate(248.5,60.75)"/>
<path d="M0 0 C-11.85668017 7.90445345 -25.3495997 6.43050753 -39 6 C-39 5.67 -39 5.34 -39 5 C-31.41 4.67 -23.82 4.34 -16 4 C-16.66 3.34 -17.32 2.68 -18 2 C-16.12922332 1.46419503 -14.2531083 0.94701113 -12.375 0.4375 C-11.33085938 0.14746094 -10.28671875 -0.14257812 -9.2109375 -0.44140625 C-5.80977098 -1.03309337 -3.34551658 -0.75851802 0 0 Z " fill="#579CCC" transform="translate(86,112)"/>
<path d="M0 0 C3.62267014 1.20755671 4.0317845 2.20740317 6 5.375 C7.80637326 8.26331557 9.56124527 10.63052808 12 13 C12.33 13.66 12.66 14.32 13 15 C18.94 14.67 24.88 14.34 31 14 C31 14.66 31 15.32 31 16 C13.27776638 18.22567383 13.27776638 18.22567383 8.02392578 14.65820312 C4.49863255 11.00420373 0 5.23273412 0 0 Z " fill="#EC2A30" transform="translate(54,29)"/>
<path d="M0 0 C0.99 0.33 1.98 0.66 3 1 C2.34 2.32 1.68 3.64 1 5 C2.98 4.67 4.96 4.34 7 4 C6.67 4.99 6.34 5.98 6 7 C4.68 7 3.36 7 2 7 C1.67 8.65 1.34 10.3 1 12 C0.34 12 -0.32 12 -1 12 C-1.33 10.35 -1.66 8.7 -2 7 C-2.33 7.66 -2.66 8.32 -3 9 C-3.99 8.67 -4.98 8.34 -6 8 C-4.55746343 4.63408134 -2.66735273 2.48952921 0 0 Z " fill="#217EBF" transform="translate(90,18)"/>
<path d="M0 0 C13.47875802 5.07641536 13.47875802 5.07641536 17 11 C18.51156626 17.85675634 17.73885132 25.07468976 17 32 C16.34 31.67 15.68 31.34 15 31 C15 24.4 15 17.8 15 11 C12.525 10.01 12.525 10.01 10 9 C8.19686814 7.88390086 6.42537114 6.71522249 4.6875 5.5 C3.80449219 4.8915625 2.92148437 4.283125 2.01171875 3.65625 C1.34785156 3.1096875 0.68398438 2.563125 0 2 C0 1.34 0 0.68 0 0 Z " fill="#F06032" transform="translate(28,54)"/>
<path d="M0 0 C4.40114397 0.50298788 6.71195019 2.08772731 10 5 C9.67 5.99 9.34 6.98 9 8 C7.35 8 5.7 8 4 8 C3.67 9.32 3.34 10.64 3 12 C0.97649676 8.96474514 0.67875982 7.80573798 0.375 4.3125 C0.30023437 3.50425781 0.22546875 2.69601563 0.1484375 1.86328125 C0.09945313 1.24839844 0.05046875 0.63351562 0 0 Z " fill="#2480C1" transform="translate(29,15)"/>
<path d="M0 0 C6.02770138 0.47587116 10.76678289 3.19722957 16 6 C14.421875 7.1484375 14.421875 7.1484375 12 8 C8.765625 7.1015625 8.765625 7.1015625 5.25 5.625 C3.49429688 4.90183594 3.49429688 4.90183594 1.703125 4.1640625 C0.81109375 3.77992187 -0.0809375 3.39578125 -1 3 C-0.67 2.01 -0.34 1.02 0 0 Z " fill="#4090C7" transform="translate(75,2)"/>
<path d="M0 0 C2.31 0 4.62 0 7 0 C7 2.31 7 4.62 7 7 C4.69 7 2.38 7 0 7 C0 4.69 0 2.38 0 0 Z " fill="#959394" transform="translate(9,56)"/>
<path d="M0 0 C-6.76877682 6.95171674 -6.76877682 6.95171674 -11.1875 7.125 C-12.115625 7.08375 -13.04375 7.0425 -14 7 C-14 6.34 -14 5.68 -14 5 C-12.23628182 3.96692229 -10.46374967 2.94887951 -8.6875 1.9375 C-7.70136719 1.36902344 -6.71523437 0.80054687 -5.69921875 0.21484375 C-3 -1 -3 -1 0 0 Z " fill="#398CC5" transform="translate(96,105)"/>
<path d="M0 0 C0.99 0 1.98 0 3 0 C3.103125 0.78375 3.20625 1.5675 3.3125 2.375 C3.77595022 5.33045181 3.77595022 5.33045181 7 7 C6.67 7.99 6.34 8.98 6 10 C3.50638429 8.79618552 1.31856917 7.54571278 -1 6 C-1.66 6 -2.32 6 -3 6 C-2.42655063 3.13275314 -2.1385485 2.1385485 0 0 Z " fill="#2882C2" transform="translate(22,21)"/>
<path d="M0 0 C3.80637067 2.53758045 4.00479144 3.55983872 5 8 C5.15840726 12.00617078 5.11670512 15.99312408 5 20 C4.01 20 3.02 20 2 20 C1.93941406 19.05898438 1.87882812 18.11796875 1.81640625 17.1484375 C1.69072266 15.28058594 1.69072266 15.28058594 1.5625 13.375 C1.48128906 12.14523438 1.40007812 10.91546875 1.31640625 9.6484375 C1.03336056 6.38467612 0.58961047 3.22056141 0 0 Z " fill="#4C96CB" transform="translate(91,44)"/>
<path d="M0 0 C3.46941546 0.45822468 6.67395049 0.89131683 10 2 C12.56634861 2.22718496 15.11678107 2.41608184 17.6875 2.5625 C18.38939453 2.60568359 19.09128906 2.64886719 19.81445312 2.69335938 C21.54275206 2.7991736 23.2713511 2.90006581 25 3 C25 3.33 25 3.66 25 4 C7.65957447 5.95744681 7.65957447 5.95744681 0 1 C0 0.67 0 0.34 0 0 Z " fill="#4391C9" transform="translate(39,90)"/>
<path d="M0 0 C6.6 0 13.2 0 20 0 C15.5 6.75 15.5 6.75 12 8 C13.5 5 13.5 5 15 2 C10.05 1.67 5.1 1.34 0 1 C0 0.67 0 0.34 0 0 Z " fill="#F3FBFB" transform="translate(64,46)"/>
<path d="M0 0 C-1.42857653 3.36048572 -3.16054598 5.27725861 -5.9375 7.625 C-6.62714844 8.21539062 -7.31679688 8.80578125 -8.02734375 9.4140625 C-10 11 -10 11 -13 13 C-13 10 -13 10 -11.1015625 7.7734375 C-9.87566406 6.58621094 -9.87566406 6.58621094 -8.625 5.375 C-7.40683594 4.18003906 -7.40683594 4.18003906 -6.1640625 2.9609375 C-2.89641434 0 -2.89641434 0 0 0 Z " fill="#1879BD" transform="translate(27,11)"/>
<path d="M0 0 C2.31 0 4.62 0 7 0 C7 0.66 7 1.32 7 2 C6.34 2 5.68 2 5 2 C5 4.64 5 7.28 5 10 C4.01 10 3.02 10 2 10 C2 7.36 2 4.72 2 2 C1.34 2 0.68 2 0 2 C0 1.34 0 0.68 0 0 Z " fill="#1C7BBE" transform="translate(54,101)"/>
<path d="M0 0 C0.99 0 1.98 0 3 0 C3 0.66 3 1.32 3 2 C4.65 2.33 6.3 2.66 8 3 C8.33 4.65 8.66 6.3 9 8 C8.01 8 7.02 8 6 8 C6 7.01 6 6.02 6 5 C4.35 5 2.7 5 1 5 C0.67 3.35 0.34 1.7 0 0 Z " fill="#2580C1" transform="translate(15,29)"/>
<path d="M0 0 C0.33 3.3 0.66 6.6 1 10 C0.01 10.495 0.01 10.495 -1 11 C-2.485 8.03 -2.485 8.03 -4 5 C-4.99 5 -5.98 5 -7 5 C-6 2 -6 2 -4.0625 0.8125 C-2 0 -2 0 0 0 Z " fill="#1578BC" transform="translate(82,95)"/>
<path d="M0 0 C0.66 0 1.32 0 2 0 C2.125 2.875 2.125 2.875 2 6 C0 8 0 8 -3.0625 8.1875 C-6 8 -6 8 -7 7 C-7.04080783 5.00041636 -7.04254356 2.99954746 -7 1 C-6.67 2.32 -6.34 3.64 -6 5 C-4.35 4.67 -2.7 4.34 -1 4 C-0.67 2.68 -0.34 1.36 0 0 Z " fill="#1979BD" transform="translate(43,99)"/>
<path d="M0 0 C0.928125 0.20625 1.85625 0.4125 2.8125 0.625 C2.8125 2.605 2.8125 4.585 2.8125 6.625 C2.1525 5.635 1.4925 4.645 0.8125 3.625 C-0.5075 3.625 -1.8275 3.625 -3.1875 3.625 C-3.5175 4.615 -3.8475 5.605 -4.1875 6.625 C-4.8475 6.625 -5.5075 6.625 -6.1875 6.625 C-6.375 4.25 -6.375 4.25 -6.1875 1.625 C-3.1875 -0.375 -3.1875 -0.375 0 0 Z " fill="#1A7ABE" transform="translate(68.1875,7.375)"/>
<path d="M0 0 C0.99 0 1.98 0 3 0 C3 0.66 3 1.32 3 2 C2.34 2 1.68 2 1 2 C1.33 4.31 1.66 6.62 2 9 C0.68 9.33 -0.64 9.66 -2 10 C-2.33 9.01 -2.66 8.02 -3 7 C-2.34 7 -1.68 7 -1 7 C-1.309375 5.824375 -1.309375 5.824375 -1.625 4.625 C-1.74875 3.75875 -1.8725 2.8925 -2 2 C-1.34 1.34 -0.68 0.68 0 0 Z " fill="#2882C1" transform="translate(49,100)"/>
<path d="M0 0 C1.32 0.33 2.64 0.66 4 1 C4 1.66 4 2.32 4 3 C3.01 3 2.02 3 1 3 C0.67 4.32 0.34 5.64 0 7 C-1.32 7.33 -2.64 7.66 -4 8 C-4.66 7.01 -5.32 6.02 -6 5 C-5.38125 4.9175 -4.7625 4.835 -4.125 4.75 C-1.81562433 4.18741541 -1.81562433 4.18741541 -0.75 1.9375 C-0.5025 1.298125 -0.255 0.65875 0 0 Z " fill="#1E7CBF" transform="translate(97,27)"/>
<path d="M0 0 C0.66 0 1.32 0 2 0 C2 1.32 2 2.64 2 4 C2.99 4.33 3.98 4.66 5 5 C4.67 6.32 4.34 7.64 4 9 C2.68 9.33 1.36 9.66 0 10 C0 9.34 0 8.68 0 8 C0.66 8 1.32 8 2 8 C1.484375 7.608125 0.96875 7.21625 0.4375 6.8125 C-0.036875 6.214375 -0.51125 5.61625 -1 5 C-0.6875 2.3125 -0.6875 2.3125 0 0 Z " fill="#237FC0" transform="translate(71,99)"/>
<path d="M0 0 C2.475 0.99 2.475 0.99 5 2 C5 5.63 5 9.26 5 13 C3.09610151 10.14415227 2.30537823 8.0688238 1.375 4.8125 C0.98441406 3.46091797 0.98441406 3.46091797 0.5859375 2.08203125 C0.39257812 1.39496094 0.19921875 0.70789062 0 0 Z " fill="#FCFAC3" transform="translate(76,63)"/>
<path d="M0 0 C0.33 1.98 0.66 3.96 1 6 C0.34 6 -0.32 6 -1 6 C-1 6.66 -1 7.32 -1 8 C-2.32 8 -3.64 8 -5 8 C-5 5.66666667 -5 3.33333333 -5 1 C-2 0 -2 0 0 0 Z " fill="#599ECF" transform="translate(58,7)"/>
<path d="M0 0 C0.86882812 0.08378906 1.73765625 0.16757813 2.6328125 0.25390625 C3.78523438 0.35574219 4.93765625 0.45757812 6.125 0.5625 C7.83042969 0.71912109 7.83042969 0.71912109 9.5703125 0.87890625 C12.88897993 0.99608016 15.7562686 0.6655072 19 0 C19 0.66 19 1.32 19 2 C14.90996141 3.14982602 10.96822949 3.11094256 6.75 3.0625 C6.00492187 3.05798828 5.25984375 3.05347656 4.4921875 3.04882812 C2.6614236 3.03709246 0.83070127 3.0191585 -1 3 C-0.67 2.01 -0.34 1.02 0 0 Z " fill="#5095CB" transform="translate(429,86)"/>
<path d="M0 0 C2.31 0 4.62 0 7 0 C6.67 0.66 6.34 1.32 6 2 C5.01 1.67 4.02 1.34 3 1 C3.26676204 2.98491642 3.26676204 2.98491642 4 5 C4.99 5.33 5.98 5.66 7 6 C7 6.33 7 6.66 7 7 C4.69 7 2.38 7 0 7 C0 4.69 0 2.38 0 0 Z " fill="#EAB6B5" transform="translate(102,56)"/>
<path d="M0 0 C2.27618181 2.1677922 4.32954824 4.32727719 6 7 C5.67 7.99 5.34 8.98 5 10 C4.34 10 3.68 10 3 10 C-1.09030544 4.85790173 -1.09030544 4.85790173 -0.75 1.625 C-0.5025 1.08875 -0.255 0.5525 0 0 Z " fill="#237FC0" transform="translate(84,92)"/>
<path d="M0 0 C3.33523252 1.38009621 5.18607951 2.84950652 7 6 C6.67 6.99 6.34 7.98 6 9 C3.35247996 6.42215154 1.05567935 4.08351902 -1 1 C-0.67 0.67 -0.34 0.34 0 0 Z " fill="#1F7DBF" transform="translate(87,90)"/>
<path d="M0 0 C1.87365234 -0.00386719 1.87365234 -0.00386719 3.78515625 -0.0078125 C6.9375 0.125 6.9375 0.125 8.9375 1.125 C8.6075 1.785 8.2775 2.445 7.9375 3.125 C7.298125 2.96 6.65875 2.795 6 2.625 C0.30615509 1.69539267 -5.45190676 1.67710497 -11.0625 3.125 C-8.97533056 -1.04933887 -4.09376117 -0.00846693 0 0 Z " fill="#3B88C5" transform="translate(409.0625,50.875)"/>
<path d="M0 0 C4.04420651 1.77945087 7.46078487 4.39529673 11 7 C9.234375 7.67578125 9.234375 7.67578125 7 8 C5.078125 6.85546875 5.078125 6.85546875 3.25 5.1875 C2.63640625 4.64480469 2.0228125 4.10210937 1.390625 3.54296875 C0 2 0 2 0 0 Z " fill="#1E7CBE" transform="translate(31,82)"/>
<path d="M0 0 C0.66 1.32 1.32 2.64 2 4 C-1 6 -1 6 -3.1875 5.625 C-3.785625 5.41875 -4.38375 5.2125 -5 5 C-4.67 3.68 -4.34 2.36 -4 1 C-2.68 0.67 -1.36 0.34 0 0 Z " fill="#A86062" transform="translate(109,56)"/>
<path d="M0 0 C3.375 0.25 3.375 0.25 7 1 C8.4375 3.0625 8.4375 3.0625 9 5 C8.01 5.495 8.01 5.495 7 6 C5.83054208 5.19152271 4.66449539 4.37810888 3.5 3.5625 C2.8503125 3.11003906 2.200625 2.65757813 1.53125 2.19140625 C1.0259375 1.79824219 0.520625 1.40507812 0 1 C0 0.67 0 0.34 0 0 Z " fill="#3287C3" transform="translate(87,9)"/>
<path d="M0 0 C0.99 0 1.98 0 3 0 C3 2.31 3 4.62 3 7 C0.69 7 -1.62 7 -4 7 C-4 6.34 -4 5.68 -4 5 C-2.35 4.67 -0.7 4.34 1 4 C0.67 2.68 0.34 1.36 0 0 Z " fill="#F0F0F1" transform="translate(13,56)"/>
<path d="M0 0 C2.97 0.495 2.97 0.495 6 1 C6 2.32 6 3.64 6 5 C4.35 5 2.7 5 1 5 C0.67 3.35 0.34 1.7 0 0 Z " fill="#579DCF" transform="translate(38,10)"/>
<path d="M0 0 C1.18771723 3.42943519 0.80226223 5.37784675 -0.4375 8.75 C-0.86869141 9.94882812 -0.86869141 9.94882812 -1.30859375 11.171875 C-1.65083984 12.07679687 -1.65083984 12.07679687 -2 13 C-3.01425231 9.95724308 -3.30163331 8.16714972 -3 5 C-1.5 2.1875 -1.5 2.1875 0 0 Z " fill="#C8E9CB" transform="translate(49,32)"/>
<path d="M0 0 C1.875 0.625 1.875 0.625 4 2 C5.25 5.125 5.25 5.125 6 8 C4.125 7.75 4.125 7.75 2 7 C0.27898465 4.41847698 0 3.15081975 0 0 Z " fill="#4190C7" transform="translate(108,28)"/>
<path d="M0 0 C0.66 0 1.32 0 2 0 C1.67 1.98 1.34 3.96 1 6 C-0.65 6.33 -2.3 6.66 -4 7 C-2.68 4.69 -1.36 2.38 0 0 Z " fill="#2F86C3" transform="translate(107,88)"/>
<path d="M0 0 C0.33 0 0.66 0 1 0 C1 2.97 1 5.94 1 9 C0.01 9.33 -0.98 9.66 -2 10 C-1.85950482 8.52031676 -1.71245174 7.04125484 -1.5625 5.5625 C-1.48128906 4.73878906 -1.40007812 3.91507812 -1.31640625 3.06640625 C-1 1 -1 1 0 0 Z " fill="#2782C1" transform="translate(115,69)"/>
<path d="M0 0 C0.66 0 1.32 0 2 0 C2 2.31 2 4.62 2 7 C0.68 6.34 -0.64 5.68 -2 5 C-1.125 1.125 -1.125 1.125 0 0 Z " fill="#302C2E" transform="translate(100,60)"/>
<path d="M0 0 C0.66 0 1.32 0 2 0 C2 2.31 2 4.62 2 7 C0.68 6.34 -0.64 5.68 -2 5 C-1.125 1.125 -1.125 1.125 0 0 Z " fill="#2D2B2E" transform="translate(7,60)"/>
<path d="M0 0 C1.32 0.66 2.64 1.32 4 2 C0.04 3.98 0.04 3.98 -4 6 C-4.66 5.34 -5.32 4.68 -6 4 C-4.02 2.68 -2.04 1.36 0 0 Z " fill="#3489C5" transform="translate(42,25)"/>
<path d="M0 0 C2.64752004 2.57784846 4.94432065 4.91648098 7 8 C6.34 8.66 5.68 9.32 5 10 C4.16121545 8.71186658 3.32913217 7.41936744 2.5 6.125 C2.0359375 5.40570313 1.571875 4.68640625 1.09375 3.9453125 C0 2 0 2 0 0 Z " fill="#D8E7F3" transform="translate(85,91)"/>
<path d="M0 0 C0.99 0.33 1.98 0.66 3 1 C0.69 3.31 -1.62 5.62 -4 8 C-4.33 7.01 -4.66 6.02 -5 5 C-3.35 3.35 -1.7 1.7 0 0 Z " fill="#1A79BD" transform="translate(35,30)"/>
<path d="M0 0 C1.70884005 1.62339805 3.37446717 3.29319053 5 5 C5 5.66 5 6.32 5 7 C3.35 6.67 1.7 6.34 0 6 C-0.38218767 4.34385343 -0.71395102 2.67542976 -1 1 C-0.67 0.67 -0.34 0.34 0 0 Z " fill="#1175BB" transform="translate(76,15)"/>
<path d="M0 0 C2 2 2 2 2.25 5 C2 8 2 8 0 10 C-2.21538462 4.58461538 -2.21538462 4.58461538 -1.125 1.625 C-0.75375 1.08875 -0.3825 0.5525 0 0 Z " fill="#EEF0F1" transform="translate(113,55)"/>
<path d="M0 0 C0.99 0.33 1.98 0.66 3 1 C3 2.32 3 3.64 3 5 C1.35 4.67 -0.3 4.34 -2 4 C-1.34 2.68 -0.68 1.36 0 0 Z " fill="#E9F2F8" transform="translate(79,14)"/>
<path d="M0 0 C0 0.66 0 1.32 0 2 C-0.99 2 -1.98 2 -3 2 C-2.67 3.32 -2.34 4.64 -2 6 C-2.99 6 -3.98 6 -5 6 C-5.33 4.35 -5.66 2.7 -6 1 C-3.92446352 0.4465236 -2.15634036 0 0 0 Z " fill="#1477BC" transform="translate(46,14)"/>
<path d="M0 0 C1.32 0 2.64 0 4 0 C4 1.65 4 3.3 4 5 C2.68 5 1.36 5 0 5 C0 3.35 0 1.7 0 0 Z " fill="#E9F1F8" transform="translate(65,10)"/>
<path d="M0 0 C1.48117801 0.28127421 2.95993249 0.57533732 4.4375 0.875 C5.67306641 1.11863281 5.67306641 1.11863281 6.93359375 1.3671875 C7.61550781 1.57601562 8.29742187 1.78484375 9 2 C9.33 2.66 9.66 3.32 10 4 C8.72125 3.896875 7.4425 3.79375 6.125 3.6875 C5.04605469 3.60048828 5.04605469 3.60048828 3.9453125 3.51171875 C2 3 2 3 0 0 Z " fill="#1477BC" transform="translate(35,111)"/>
<path d="M0 0 C1.32 0.33 2.64 0.66 4 1 C3.67 2.65 3.34 4.3 3 6 C2.34 6 1.68 6 1 6 C0.67 4.02 0.34 2.04 0 0 Z " fill="#212429" transform="translate(109,53)"/>
<path d="M0 0 C1.32 0.33 2.64 0.66 4 1 C3.67 2.65 3.34 4.3 3 6 C2.34 6 1.68 6 1 6 C0.67 4.02 0.34 2.04 0 0 Z " fill="#27272C" transform="translate(16,53)"/>
<path d="M0 0 C0.66 0.33 1.32 0.66 2 1 C2.125 3.875 2.125 3.875 2 7 C1.34 7.66 0.68 8.32 0 9 C0 8.34 0 7.68 0 7 C-0.99 6.67 -1.98 6.34 -3 6 C-2.34 5.67 -1.68 5.34 -1 5 C-0.34444881 2.47266765 -0.34444881 2.47266765 0 0 Z " fill="#B0DFB4" transform="translate(45,39)"/>
<path d="M0 0 C1.32 0 2.64 0 4 0 C3.67 1.65 3.34 3.3 3 5 C2.01 4.67 1.02 4.34 0 4 C0 2.68 0 1.36 0 0 Z " fill="#EBF3F9" transform="translate(38,100)"/>
<path d="M0 0 C-0.6875 1.9375 -0.6875 1.9375 -2 4 C-4.625 4.75 -4.625 4.75 -7 5 C-6 2 -6 2 -4.0625 0.8125 C-2 0 -2 0 0 0 Z " fill="#2B83C2" transform="translate(82,95)"/>
<path d="M0 0 C2.31 0 4.62 0 7 0 C7.33 1.32 7.66 2.64 8 4 C5.64828869 3.40138258 3.3140622 2.73075648 1 2 C0.67 1.34 0.34 0.68 0 0 Z " fill="#74ACD3" transform="translate(29,110)"/>
<path d="M0 0 C2.31 0.66 4.62 1.32 7 2 C7 2.66 7 3.32 7 4 C4.125 4.1875 4.125 4.1875 1 4 C0.34 3.01 -0.32 2.02 -1 1 C-0.67 0.67 -0.34 0.34 0 0 Z " fill="#1276BB" transform="translate(25,96)"/>
<path d="M0 0 C0.66 0 1.32 0 2 0 C1.67 1.65 1.34 3.3 1 5 C-0.32 4.67 -1.64 4.34 -3 4 C-1.625 2 -1.625 2 0 0 Z " fill="#ECF3F9" transform="translate(29,93)"/>
<path d="M0 0 C2.97 0.99 5.94 1.98 9 3 C9 3.33 9 3.66 9 4 C5.37471432 4.20140476 3.13498292 3.85776765 0 2 C0 1.34 0 0.68 0 0 Z " fill="#EBF2F9" transform="translate(60,71)"/>
<path d="M0 0 C3.68754757 0.49831724 5.60490662 1.10067643 8 4 C5.625 4.625 5.625 4.625 3 5 C2.34 4.34 1.68 3.68 1 3 C1.33 2.67 1.66 2.34 2 2 C1.34 1.34 0.68 0.68 0 0 Z " fill="#6FA9D2" transform="translate(83,5)"/>
</svg>
